<?xml version="1.0" standalone="no"?>
<!DOCTYPE svg PUBLIC "-//W3C//DTD SVG 20010904//EN"
 "http://www.w3.org/TR/2001/REC-SVG-20010904/DTD/svg10.dtd">
<svg version="1.0" xmlns="http://www.w3.org/2000/svg"
 width="272.000000pt" height="272.000000pt" viewBox="0 0 272.000000 272.000000"
 preserveAspectRatio="xMidYMid meet">

<g transform="translate(0.000000,272.000000) scale(0.100000,-0.100000)"
fill="#000000" stroke="none">
<path d="M720 2335 c-107 -34 -209 -135 -248 -248 -20 -55 -22 -82 -22 -244
l0 -182 -37 -6 c-61 -11 -96 -24 -128 -50 -29 -24 -29 -25 -10 -40 16 -12 17
-14 3 -9 -34 12 -18 -5 50 -53 37 -26 69 -50 72 -53 3 -4 30 -23 60 -43 l55
-37 6 137 c4 76 7 221 8 323 1 182 1 186 30 245 36 75 98 136 176 172 l60 28
550 0 550 0 60 -24 c71 -29 150 -103 185 -176 l25 -50 3 -454 3 -453 87 4
c124 6 198 51 249 152 31 60 35 158 10 217 -34 81 -146 168 -217 169 -47 1
-48 5 -52 210 -3 192 -3 196 -32 255 -38 77 -114 153 -191 191 l-60 29 -600 2
c-492 1 -608 -1 -645 -12z"/>
<path d="M1020 2013 c1 -181 2 -204 14 -178 14 32 51 55 88 55 27 0 524 -285
561 -321 35 -35 37 -90 5 -122 -13 -12 -136 -87 -274 -166 l-250 -145 22 -46
c33 -68 54 -146 61 -227 l6 -73 429 0 429 0 -3 593 -3 592 -33 67 c-35 72 -78
114 -152 151 -44 22 -54 22 -472 25 l-428 3 0 -208z"/>
<path d="M1047 492 l-79 -3 29 -22 c15 -12 31 -21 35 -19 5 1 8 -3 8 -9 0 -5
4 -8 8 -5 5 3 21 -6 37 -20 35 -30 47 -20 43 37 l-3 44 -78 -3z"/>
<path d="M1478 382 c-181 -1 -328 -6 -328 -11 0 -4 12 -14 28 -22 22 -11 114
-15 480 -17 l452 -3 0 31 0 31 -152 -3 c-84 -2 -300 -4 -480 -6z"/>
</g>
</svg>
