<?xml version="1.0" standalone="no"?>
<!DOCTYPE svg PUBLIC "-//W3C//DTD SVG 20010904//EN"
 "http://www.w3.org/TR/2001/REC-SVG-20010904/DTD/svg10.dtd">
<svg version="1.0" xmlns="http://www.w3.org/2000/svg"
 width="26872.000000pt" height="6305.000000pt" viewBox="0 0 26872.000000 6305.000000"
 preserveAspectRatio="xMidYMid meet">

<g transform="translate(0.000000,6305.000000) scale(0.100000,-0.100000)"
fill="#000000" stroke="none">
<path d="M19625 61153 c-3266 -108 -6285 -1492 -8461 -3878 -1438 -1578 -2414
-3542 -2793 -5625 -76 -416 -109 -682 -163 -1300 -8 -100 -12 -1302 -15 -4656
l-3 -4521 -238 -6 c-1619 -44 -3178 -553 -4501 -1470 -265 -184 -555 -412
-545 -429 4 -7 2 -8 -5 -4 -11 7 -25 -3 -93 -66 -16 -15 -35 -31 -43 -35 -20
-11 -161 -141 -286 -263 -72 -69 -104 -107 -96 -112 8 -5 4 -8 -9 -8 -12 0
-28 -8 -35 -17 -10 -11 -10 -14 -1 -9 7 4 12 2 12 -8 0 -9 -7 -13 -19 -11 -25
5 -53 -29 -38 -45 9 -8 8 -10 -6 -4 -21 8 -60 -23 -53 -43 3 -7 1 -14 -4 -14
-6 -1 -16 -2 -22 -3 -7 0 -14 -8 -15 -16 -4 -20 14 -47 24 -36 4 5 2 11 -4 13
-7 3 -13 11 -13 19 0 12 4 12 20 4 11 -6 17 -16 14 -25 -5 -11 1 -15 19 -15
16 0 26 -7 30 -20 4 -15 14 -20 37 -20 23 0 33 -5 37 -20 3 -11 14 -20 24 -20
11 0 19 -6 19 -14 0 -7 9 -16 21 -19 11 -3 23 -15 26 -26 4 -14 13 -21 30 -21
25 0 83 -49 83 -69 0 -6 9 -11 20 -11 11 0 23 -6 26 -14 3 -8 19 -18 36 -21
18 -4 32 -15 35 -26 3 -10 14 -19 24 -19 11 0 19 -4 19 -10 0 -5 7 -10 15 -10
8 0 19 -9 25 -20 6 -11 17 -20 25 -20 8 0 15 -4 15 -10 0 -5 8 -10 19 -10 10
0 21 -9 24 -19 3 -11 17 -22 35 -26 17 -3 36 -13 43 -21 6 -8 18 -14 25 -14 8
0 14 -9 14 -20 0 -12 7 -20 16 -20 9 0 18 -9 21 -19 3 -12 17 -21 37 -25 20
-4 44 -20 62 -41 16 -19 37 -35 47 -35 10 0 20 -6 23 -14 3 -8 19 -18 36 -21
18 -4 32 -15 35 -26 3 -10 14 -19 24 -19 11 0 19 -4 19 -10 0 -5 7 -10 15 -10
8 0 19 -9 25 -20 6 -11 17 -20 25 -20 8 0 15 -4 15 -10 0 -5 8 -10 19 -10 10
0 21 -9 24 -20 3 -11 12 -20 21 -20 9 0 16 -8 16 -20 0 -16 7 -20 36 -20 27 0
37 -5 41 -20 3 -11 12 -20 20 -20 8 0 17 -9 20 -20 3 -11 14 -20 24 -20 11 0
19 -4 19 -10 0 -5 7 -10 15 -10 8 0 19 -9 25 -20 6 -11 17 -20 25 -20 8 0 15
-4 15 -10 0 -5 8 -10 19 -10 10 0 21 -9 24 -20 4 -15 14 -20 37 -20 23 0 33
-5 37 -20 3 -11 14 -20 24 -20 11 0 19 -4 19 -10 0 -5 7 -10 15 -10 8 0 19 -9
25 -20 6 -11 17 -20 25 -20 8 0 15 -4 15 -10 0 -5 8 -10 19 -10 10 0 21 -9 24
-20 3 -11 12 -20 21 -20 9 0 16 -8 16 -20 0 -15 7 -20 25 -20 14 0 25 -4 25
-10 0 -5 7 -10 15 -10 8 0 15 -4 15 -10 0 -5 7 -10 16 -10 9 0 18 -9 21 -20 3
-11 14 -20 24 -20 11 0 19 -4 19 -10 0 -5 7 -10 15 -10 8 0 19 -9 25 -20 6
-11 17 -20 25 -20 8 0 15 -4 15 -10 0 -5 8 -10 19 -10 10 0 21 -9 24 -20 4
-15 14 -20 37 -20 23 0 33 -5 37 -20 3 -11 14 -20 24 -20 11 0 19 -6 19 -14 0
-7 9 -16 21 -19 11 -3 23 -15 26 -26 4 -14 13 -21 30 -21 25 0 83 -49 83 -69
0 -6 9 -11 20 -11 11 0 23 -6 26 -14 3 -8 19 -18 36 -21 18 -4 32 -15 35 -26
3 -10 14 -19 24 -19 11 0 19 -4 19 -10 0 -5 7 -10 15 -10 8 0 19 -9 25 -20 6
-11 17 -20 25 -20 8 0 15 -4 15 -10 0 -5 8 -10 19 -10 10 0 21 -9 24 -19 3
-11 17 -22 35 -26 17 -3 36 -13 43 -21 6 -8 18 -14 25 -14 8 0 14 -9 14 -20 0
-12 7 -20 16 -20 9 0 18 -9 21 -19 3 -12 17 -21 37 -25 20 -4 44 -20 62 -41
16 -19 37 -35 47 -35 10 0 20 -6 23 -14 3 -8 19 -18 36 -21 18 -4 32 -15 35
-26 3 -10 14 -19 24 -19 11 0 19 -4 19 -10 0 -5 7 -10 15 -10 8 0 19 -9 25
-20 6 -11 17 -20 25 -20 8 0 15 -4 15 -10 0 -5 8 -10 19 -10 10 0 21 -9 24
-20 3 -11 12 -20 21 -20 9 0 16 -8 16 -20 0 -16 7 -20 36 -20 27 0 37 -5 41
-20 3 -11 12 -20 20 -20 8 0 17 -9 20 -20 3 -11 14 -20 24 -20 11 0 19 -4 19
-10 0 -5 7 -10 15 -10 8 0 19 -9 25 -20 6 -11 17 -20 25 -20 8 0 15 -4 15 -10
0 -5 8 -10 19 -10 10 0 21 -9 24 -20 4 -15 14 -20 37 -20 23 0 33 -5 37 -20 3
-11 14 -20 24 -20 11 0 19 -4 19 -10 0 -5 7 -10 15 -10 8 0 19 -9 25 -20 6
-11 17 -20 25 -20 8 0 15 -4 15 -10 0 -5 8 -10 19 -10 10 0 21 -9 24 -20 3
-11 12 -20 21 -20 9 0 16 -8 16 -20 0 -13 7 -20 20 -20 11 0 23 -6 26 -14 3
-8 19 -18 36 -21 18 -4 32 -15 35 -26 3 -10 14 -19 24 -19 11 0 19 -4 19 -10
0 -5 7 -10 15 -10 8 0 19 -9 25 -20 6 -11 17 -20 25 -20 8 0 15 -4 15 -10 0
-5 8 -10 19 -10 10 0 21 -9 24 -20 4 -15 14 -20 37 -20 23 0 33 -5 37 -20 3
-11 14 -20 24 -20 11 0 19 -6 19 -14 0 -7 9 -16 21 -19 11 -3 23 -15 26 -26 3
-11 17 -22 33 -26 15 -3 40 -22 56 -41 16 -18 37 -34 47 -34 10 0 20 -6 23
-14 3 -8 19 -18 36 -21 18 -4 32 -15 35 -26 3 -10 14 -19 24 -19 11 0 19 -4
19 -10 0 -5 7 -10 15 -10 8 0 19 -9 25 -20 6 -11 17 -20 25 -20 8 0 15 -4 15
-10 0 -5 8 -10 19 -10 10 0 21 -9 24 -19 3 -11 17 -22 35 -26 17 -3 36 -13 43
-21 6 -8 18 -14 25 -14 8 0 14 -9 14 -20 0 -12 7 -20 16 -20 9 0 18 -9 21 -19
3 -12 17 -21 37 -25 20 -4 44 -20 62 -41 16 -19 36 -35 45 -35 9 0 19 -9 22
-20 4 -15 14 -20 37 -20 23 0 33 -5 37 -20 3 -11 14 -20 24 -20 11 0 19 -4 19
-10 0 -5 7 -10 15 -10 8 0 19 -9 25 -20 6 -11 17 -20 25 -20 8 0 15 -4 15 -10
0 -5 8 -10 19 -10 10 0 21 -9 24 -20 3 -11 12 -20 21 -20 9 0 16 -8 16 -20 0
-15 7 -20 25 -20 14 0 25 -4 25 -10 0 -5 7 -10 15 -10 8 0 15 -4 15 -10 0 -5
7 -10 16 -10 9 0 18 -9 21 -20 3 -11 14 -20 24 -20 11 0 19 -4 19 -10 0 -5 7
-10 15 -10 8 0 19 -9 25 -20 6 -11 17 -20 25 -20 8 0 15 -4 15 -10 0 -5 8 -10
19 -10 10 0 21 -9 24 -20 4 -15 14 -20 37 -20 23 0 33 -5 37 -20 3 -11 13 -20
23 -20 9 0 36 -18 60 -40 24 -22 51 -40 60 -40 10 0 20 -9 23 -20 3 -11 12
-20 21 -20 9 0 16 -8 16 -20 0 -13 7 -20 20 -20 11 0 23 -6 26 -14 3 -8 19
-18 36 -21 18 -4 32 -15 35 -26 3 -10 14 -19 24 -19 11 0 19 -4 19 -10 0 -5 7
-10 15 -10 8 0 19 -9 25 -20 6 -11 17 -20 25 -20 8 0 15 -4 15 -10 0 -5 8 -10
19 -10 10 0 21 -9 24 -19 3 -11 17 -22 35 -26 17 -3 36 -13 43 -21 6 -8 18
-14 25 -14 8 0 14 -6 14 -14 0 -7 9 -16 21 -19 11 -3 23 -15 26 -26 3 -11 17
-22 33 -26 15 -3 40 -22 56 -41 16 -18 37 -34 47 -34 10 0 20 -6 23 -14 3 -8
19 -18 36 -21 18 -4 32 -15 35 -26 3 -10 14 -19 24 -19 11 0 19 -4 19 -10 0
-5 7 -10 15 -10 8 0 19 -9 25 -20 6 -11 17 -20 25 -20 8 0 15 -4 15 -10 0 -5
9 -10 20 -10 11 0 20 -7 20 -15 0 -9 10 -19 23 -24 13 -5 29 -16 36 -25 7 -9
24 -16 37 -16 17 0 24 -6 24 -20 0 -12 7 -20 16 -20 9 0 18 -9 21 -20 3 -11
14 -20 24 -20 11 0 19 -4 19 -10 0 -5 7 -10 15 -10 8 0 19 -9 25 -20 6 -11 17
-20 25 -20 8 0 15 -4 15 -10 0 -5 8 -10 19 -10 10 0 21 -9 24 -20 4 -15 14
-20 37 -20 23 0 33 -5 37 -20 3 -11 14 -20 24 -20 11 0 19 -4 19 -10 0 -5 7
-10 15 -10 8 0 19 -9 25 -20 6 -11 17 -20 25 -20 8 0 15 -4 15 -10 0 -5 8 -10
19 -10 10 0 21 -9 24 -20 3 -11 12 -20 21 -20 9 0 16 -8 16 -20 0 -15 7 -20
25 -20 14 0 25 -4 25 -10 0 -5 7 -10 15 -10 8 0 15 -4 15 -10 0 -5 7 -10 16
-10 9 0 18 -9 21 -20 3 -11 14 -20 24 -20 11 0 19 -4 19 -10 0 -5 7 -10 15
-10 8 0 19 -9 25 -20 6 -11 17 -20 25 -20 8 0 15 -4 15 -10 0 -5 8 -10 19 -10
10 0 21 -9 24 -20 4 -15 14 -20 37 -20 23 0 33 -5 37 -20 3 -11 13 -20 23 -20
9 0 36 -18 60 -40 24 -22 51 -40 60 -40 10 0 20 -9 23 -20 3 -11 12 -20 21
-20 9 0 16 -8 16 -20 0 -13 7 -20 20 -20 11 0 23 -6 26 -14 3 -8 19 -18 36
-21 18 -4 32 -15 35 -26 3 -10 14 -19 24 -19 11 0 19 -4 19 -10 0 -5 7 -10 15
-10 8 0 19 -9 25 -20 6 -11 17 -20 25 -20 8 0 15 -4 15 -10 0 -5 8 -10 19 -10
10 0 21 -9 24 -19 3 -11 17 -22 35 -26 17 -3 36 -13 43 -21 6 -8 18 -14 25
-14 8 0 14 -6 14 -14 0 -7 9 -16 21 -19 11 -3 23 -14 26 -25 3 -11 17 -23 31
-27 15 -3 42 -23 59 -42 l33 -37 0 139 c0 76 3 136 6 132 3 -3 6 -83 6 -179 0
-107 3 -156 8 -128 6 36 7 39 9 15 1 -23 4 -26 11 -15 5 9 11 142 14 295 3
154 8 3923 11 8375 4 5102 9 8165 16 8285 88 1707 636 3358 1594 4805 800
1208 1877 2240 3135 3005 1093 664 2327 1121 3590 1330 353 58 685 96 1115
126 249 18 3918 20 16900 10 12640 -10 11726 -6 12205 -56 1445 -154 2851
-623 4110 -1373 2115 -1260 3696 -3266 4396 -5579 236 -782 368 -1569 404
-2408 6 -147 10 -4535 10 -12192 l0 -11963 1343 0 c1326 0 1535 4 1882 36
2760 251 5205 1863 6493 4279 494 928 787 1923 888 3015 22 240 30 842 15
1096 -70 1160 -374 2250 -907 3249 -1013 1896 -2751 3316 -4834 3950 -704 214
-1446 334 -2172 352 l-257 6 -4 4491 c-3 3267 -7 4529 -15 4631 -33 396 -46
530 -73 745 -162 1285 -534 2504 -1120 3665 -1024 2033 -2628 3720 -4629 4870
-1666 958 -3531 1492 -5495 1575 -199 8 -29347 12 -29600 3z m-16468 -22019
c-3 -3 -12 -4 -19 -1 -8 3 -5 6 6 6 11 1 17 -2 13 -5z m-684 -275 c-6 -6 -9
-19 -6 -28 4 -13 3 -14 -5 -1 -10 14 1 40 16 40 3 0 1 -5 -5 -11z m-77 -106
c-3 -22 -12 -24 -29 -5 -15 17 -15 18 7 18 13 0 23 -5 22 -13z m84 -13 c0 -5
-4 -10 -10 -10 -5 0 -10 5 -10 10 0 6 5 10 10 10 6 0 10 -4 10 -10z m80 -60
c0 -5 -4 -10 -9 -10 -6 0 -13 5 -16 10 -3 6 1 10 9 10 9 0 16 -4 16 -10z m160
-120 c0 -5 -4 -10 -9 -10 -6 0 -13 5 -16 10 -3 6 1 10 9 10 9 0 16 -4 16 -10z
m80 -60 c0 -5 -2 -10 -4 -10 -3 0 -8 5 -11 10 -3 6 -1 10 4 10 6 0 11 -4 11
-10z m80 -60 c0 -5 -4 -10 -9 -10 -6 0 -13 5 -16 10 -3 6 1 10 9 10 9 0 16 -4
16 -10z m80 -40 c0 -5 -6 -10 -14 -10 -8 0 -18 5 -21 10 -3 6 3 10 14 10 12 0
21 -4 21 -10z m160 -120 c0 -5 -7 -7 -15 -4 -8 4 -15 8 -15 10 0 2 7 4 15 4 8
0 15 -4 15 -10z m160 -120 c0 -5 -4 -10 -9 -10 -6 0 -13 5 -16 10 -3 6 1 10 9
10 9 0 16 -4 16 -10z m80 -60 c0 -5 -4 -10 -10 -10 -5 0 -10 5 -10 10 0 6 5
10 10 10 6 0 10 -4 10 -10z m80 -60 c0 -5 -7 -7 -15 -4 -8 4 -15 8 -15 10 0 2
7 4 15 4 8 0 15 -4 15 -10z m80 -46 c0 -11 -5 -14 -16 -10 -9 3 -20 6 -25 6
-5 0 -9 5 -9 10 0 6 11 10 25 10 16 0 25 -6 25 -16z m160 -134 c0 -5 -2 -10
-4 -10 -3 0 -8 5 -11 10 -3 6 -1 10 4 10 6 0 11 -4 11 -10z m1365 -90 c3 -6
-1 -7 -9 -4 -18 7 -21 14 -7 14 6 0 13 -4 16 -10z m-1205 -10 c0 -5 -4 -10 -9
-10 -6 0 -13 5 -16 10 -3 6 1 10 9 10 9 0 16 -4 16 -10z m80 -60 c0 -5 -4 -10
-10 -10 -5 0 -10 5 -10 10 0 6 5 10 10 10 6 0 10 -4 10 -10z m80 -60 c0 -5 -4
-10 -9 -10 -6 0 -13 5 -16 10 -3 6 1 10 9 10 9 0 16 -4 16 -10z m240 -180 c0
-5 -4 -10 -10 -10 -5 0 -10 5 -10 10 0 6 5 10 10 10 6 0 10 -4 10 -10z m160
-100 c0 -5 -6 -10 -14 -10 -8 0 -18 5 -21 10 -3 6 3 10 14 10 12 0 21 -4 21
-10z m80 -60 c0 -5 -4 -10 -10 -10 -5 0 -10 5 -10 10 0 6 5 10 10 10 6 0 10
-4 10 -10z m80 -60 c0 -5 -4 -10 -9 -10 -6 0 -13 5 -16 10 -3 6 1 10 9 10 9 0
16 -4 16 -10z m160 -120 c0 -5 -4 -10 -9 -10 -6 0 -13 5 -16 10 -3 6 1 10 9
10 9 0 16 -4 16 -10z m80 -60 c0 -5 -4 -10 -10 -10 -5 0 -10 5 -10 10 0 6 5
10 10 10 6 0 10 -4 10 -10z m80 -60 c0 -5 -7 -7 -15 -4 -8 4 -15 8 -15 10 0 2
7 4 15 4 8 0 15 -4 15 -10z m80 -40 c0 -5 -6 -10 -14 -10 -8 0 -18 5 -21 10
-3 6 3 10 14 10 12 0 21 -4 21 -10z m320 -246 c0 -14 -3 -14 -15 -4 -8 7 -15
14 -15 16 0 2 7 4 15 4 8 0 15 -7 15 -16z m80 -54 c0 -5 -4 -10 -9 -10 -6 0
-13 5 -16 10 -3 6 1 10 9 10 9 0 16 -4 16 -10z m80 -60 c0 -5 -7 -7 -15 -4 -8
4 -15 8 -15 10 0 2 7 4 15 4 8 0 15 -4 15 -10z m80 -46 c0 -11 -5 -14 -16 -10
-9 3 -20 6 -25 6 -5 0 -9 5 -9 10 0 6 11 10 25 10 16 0 25 -6 25 -16z m160
-134 c0 -5 -2 -10 -4 -10 -3 0 -8 5 -11 10 -3 6 -1 10 4 10 6 0 11 -4 11 -10z
m160 -100 c0 -5 -4 -10 -9 -10 -6 0 -13 5 -16 10 -3 6 1 10 9 10 9 0 16 -4 16
-10z m80 -60 c0 -5 -4 -10 -10 -10 -5 0 -10 5 -10 10 0 6 5 10 10 10 6 0 10
-4 10 -10z m80 -60 c0 -5 -4 -10 -9 -10 -6 0 -13 5 -16 10 -3 6 1 10 9 10 9 0
16 -4 16 -10z m240 -180 c0 -5 -4 -10 -10 -10 -5 0 -10 5 -10 10 0 6 5 10 10
10 6 0 10 -4 10 -10z m80 -60 c0 -5 -2 -10 -4 -10 -3 0 -8 5 -11 10 -3 6 -1
10 4 10 6 0 11 -4 11 -10z m80 -40 c0 -5 -6 -10 -14 -10 -8 0 -18 5 -21 10 -3
6 3 10 14 10 12 0 21 -4 21 -10z m80 -60 c0 -5 -4 -10 -9 -10 -6 0 -13 5 -16
10 -3 6 1 10 9 10 9 0 16 -4 16 -10z m80 -66 c0 -14 -3 -14 -15 -4 -8 7 -15
14 -15 16 0 2 7 4 15 4 8 0 15 -7 15 -16z m160 -114 c0 -5 -4 -10 -9 -10 -6 0
-13 5 -16 10 -3 6 1 10 9 10 9 0 16 -4 16 -10z m80 -60 c0 -5 -4 -10 -10 -10
-5 0 -10 5 -10 10 0 6 5 10 10 10 6 0 10 -4 10 -10z m80 -60 c0 -5 -7 -7 -15
-4 -8 4 -15 8 -15 10 0 2 7 4 15 4 8 0 15 -4 15 -10z m80 -40 c0 -5 -6 -10
-14 -10 -8 0 -18 5 -21 10 -3 6 3 10 14 10 12 0 21 -4 21 -10z m320 -246 c0
-14 -3 -14 -15 -4 -8 7 -15 14 -15 16 0 2 7 4 15 4 8 0 15 -7 15 -16z m80 -54
c0 -5 -4 -10 -9 -10 -6 0 -13 5 -16 10 -3 6 1 10 9 10 9 0 16 -4 16 -10z m160
-106 c0 -11 -5 -14 -16 -10 -9 3 -20 6 -25 6 -5 0 -9 5 -9 10 0 6 11 10 25 10
16 0 25 -6 25 -16z m160 -134 c0 -5 -4 -10 -10 -10 -5 0 -10 5 -10 10 0 6 5
10 10 10 6 0 10 -4 10 -10z m160 -100 c0 -5 -4 -10 -9 -10 -6 0 -13 5 -16 10
-3 6 1 10 9 10 9 0 16 -4 16 -10z m80 -60 c0 -5 -4 -10 -10 -10 -5 0 -10 5
-10 10 0 6 5 10 10 10 6 0 10 -4 10 -10z m80 -60 c0 -5 -4 -10 -9 -10 -6 0
-13 5 -16 10 -3 6 1 10 9 10 9 0 16 -4 16 -10z m160 -120 c0 -5 -4 -10 -9 -10
-6 0 -13 5 -16 10 -3 6 1 10 9 10 9 0 16 -4 16 -10z m80 -60 c0 -5 -4 -10 -10
-10 -5 0 -10 5 -10 10 0 6 5 10 10 10 6 0 10 -4 10 -10z m80 -60 c0 -5 -2 -10
-4 -10 -3 0 -8 5 -11 10 -3 6 -1 10 4 10 6 0 11 -4 11 -10z m80 -40 c0 -5 -6
-10 -14 -10 -8 0 -18 5 -21 10 -3 6 3 10 14 10 12 0 21 -4 21 -10z m80 -60 c0
-5 -4 -10 -9 -10 -6 0 -13 5 -16 10 -3 6 1 10 9 10 9 0 16 -4 16 -10z m80 -66
c0 -14 -3 -14 -15 -4 -8 7 -15 14 -15 16 0 2 7 4 15 4 8 0 15 -7 15 -16z m160
-114 c0 -5 -4 -10 -9 -10 -6 0 -13 5 -16 10 -3 6 1 10 9 10 9 0 16 -4 16 -10z
m80 -60 c0 -5 -4 -10 -10 -10 -5 0 -10 5 -10 10 0 6 5 10 10 10 6 0 10 -4 10
-10z m77 -56 c-3 -3 -12 -4 -19 -1 -8 3 -5 6 6 6 11 1 17 -2 13 -5z m83 -44
c0 -5 -6 -10 -14 -10 -8 0 -18 5 -21 10 -3 6 3 10 14 10 12 0 21 -4 21 -10z
m0 -246 c0 -14 -3 -14 -15 -4 -8 7 -15 14 -15 16 0 2 7 4 15 4 8 0 15 -7 15
-16z m320 0 c0 -14 -3 -14 -15 -4 -8 7 -15 14 -15 16 0 2 7 4 15 4 8 0 15 -7
15 -16z m1287 -46 c-3 -8 -6 -5 -6 6 -1 11 2 17 5 13 3 -3 4 -12 1 -19z
m-1207 -8 c0 -5 -4 -10 -9 -10 -6 0 -13 5 -16 10 -3 6 1 10 9 10 9 0 16 -4 16
-10z m160 -106 c0 -11 -5 -14 -16 -10 -9 3 -20 6 -25 6 -5 0 -9 5 -9 10 0 6
11 10 25 10 16 0 25 -6 25 -16z m160 -134 c0 -5 -4 -10 -10 -10 -5 0 -10 5
-10 10 0 6 5 10 10 10 6 0 10 -4 10 -10z m160 -100 c0 -5 -6 -10 -14 -10 -8 0
-18 5 -21 10 -3 6 3 10 14 10 12 0 21 -4 21 -10z m80 -60 c0 -5 -4 -10 -10
-10 -5 0 -10 5 -10 10 0 6 5 10 10 10 6 0 10 -4 10 -10z m240 -180 c0 -5 -4
-10 -9 -10 -6 0 -13 5 -16 10 -3 6 1 10 9 10 9 0 16 -4 16 -10z m80 -60 c0 -5
-4 -10 -10 -10 -5 0 -10 5 -10 10 0 6 5 10 10 10 6 0 10 -4 10 -10z m80 -60
c0 -5 -4 -10 -9 -10 -6 0 -13 5 -16 10 -3 6 1 10 9 10 9 0 16 -4 16 -10z m80
-40 c0 -5 -6 -10 -14 -10 -8 0 -18 5 -21 10 -3 6 3 10 14 10 12 0 21 -4 21
-10z m80 -60 c0 -5 -4 -10 -9 -10 -6 0 -13 5 -16 10 -3 6 1 10 9 10 9 0 16 -4
16 -10z m80 -60 c0 -5 -7 -7 -15 -4 -8 4 -15 8 -15 10 0 2 7 4 15 4 8 0 15 -4
15 -10z"/>
<path d="M24638 57153 c45 -2 119 -2 165 0 45 1 8 3 -83 3 -91 0 -128 -2 -82
-3z"/>
<path d="M24915 57145 c17 -8 24 -14 17 -15 -10 0 -12 -2580 -12 -12897 0
-7094 -3 -12896 -7 -12895 -5 2 -7 8 -5 14 1 5 -6 12 -17 15 -14 4 -18 11 -15
29 2 13 0 24 -6 24 -6 0 -9 -4 -5 -9 3 -5 1 -12 -5 -16 -5 -3 -10 -1 -10 6 0
7 -3 9 -7 6 -9 -10 27 -47 45 -47 9 0 12 -3 9 -7 -9 -9 23 -43 40 -43 8 0 12
-4 9 -8 -3 -5 8 -22 24 -37 24 -23 30 -25 30 -12 0 9 4 17 9 17 5 0 8 -11 5
-24 -2 -13 2 -29 11 -36 13 -11 15 770 15 6896 0 3800 3 6929 5 6954 5 47 10
87 19 159 5 38 4 42 -9 31 -8 -7 -15 -9 -15 -5 0 4 8 13 17 20 9 7 17 22 18
33 1 18 -1 20 -14 9 -10 -8 -13 -9 -8 0 4 6 3 14 -3 18 -15 9 -12 22 5 22 8 0
11 -5 8 -10 -3 -5 0 -8 8 -5 17 6 19 44 2 40 -7 -1 -13 3 -13 9 0 6 9 8 23 3
12 -3 19 -3 15 1 -3 4 0 29 8 57 9 27 13 57 10 65 -4 9 -2 11 6 7 7 -5 9 1 6
19 -3 15 -1 24 3 21 8 -5 14 27 10 50 -1 4 4 14 10 22 11 14 10 15 -13 18 -6
0 -13 8 -15 16 -3 9 -1 11 4 5 4 -5 15 -11 24 -13 12 -2 21 14 35 60 10 35 18
69 17 76 0 6 4 12 9 12 6 0 7 7 4 16 -4 10 -2 13 6 8 7 -5 9 0 6 14 -4 13 -1
25 6 30 21 12 25 36 9 54 -10 11 -11 18 -3 23 6 3 9 1 8 -6 -2 -6 3 -14 11
-17 8 -2 11 0 7 6 -3 6 -1 14 5 17 5 4 8 14 5 22 -3 8 -2 12 3 9 9 -6 36 50
32 67 0 4 3 7 7 7 13 0 33 50 26 63 -4 7 -3 8 1 4 11 -10 76 103 68 117 -4 6
-3 8 2 4 5 -5 23 17 41 47 19 30 52 80 74 110 34 46 38 55 24 63 -14 8 -14 10
1 22 13 11 15 10 9 -4 -13 -33 13 -14 56 42 25 31 79 96 122 143 42 48 74 90
70 94 -4 3 -2 5 3 3 6 -2 47 29 90 69 296 268 621 458 978 572 552 176 1176
162 1782 -41 204 -68 312 -123 930 -480 595 -343 1286 -740 3975 -2288 767
-442 1764 -1015 2215 -1275 2371 -1365 7392 -4255 7540 -4340 312 -178 508
-326 735 -554 433 -435 687 -925 777 -1501 25 -161 25 -587 0 -745 -63 -395
-186 -730 -388 -1054 -216 -346 -515 -651 -859 -874 -47 -30 -1237 -717 -2645
-1527 -1408 -810 -3041 -1750 -3630 -2088 -1722 -990 -3767 -2167 -4940 -2842
-599 -345 -1583 -911 -2185 -1257 -602 -347 -1110 -638 -1128 -647 l-33 -17
24 -42 c119 -204 474 -901 642 -1257 481 -1022 870 -2060 1169 -3122 55 -194
184 -691 210 -811 141 -634 228 -1095 295 -1552 6 -38 13 -86 16 -105 25 -176
58 -429 75 -590 11 -107 22 -213 25 -235 22 -190 34 -370 24 -376 -8 -5 -8 -8
0 -10 11 -4 30 -241 51 -639 14 -270 25 -1181 16 -1292 l-8 -87 -146 -4 c-81
-1 5490 -4 12381 -5 l12527 -2 0 16323 c0 11075 -3 16381 -10 16507 -19 340
-55 663 -110 996 -568 3445 -3093 6278 -6455 7243 -595 170 -1132 265 -1890
333 -98 9 -2960 12 -11555 14 -9710 2 -11420 0 -11395 -11z m462 -10960 c0 -8
-4 -12 -9 -9 -5 3 -6 10 -3 15 9 13 12 11 12 -6z m-33 -23 c3 -5 -1 -9 -9 -9
-8 0 -12 4 -9 9 3 4 7 8 9 8 2 0 6 -4 9 -8z m-35 -46 c9 -11 9 -16 -1 -22 -7
-4 -10 -4 -6 1 4 4 3 14 -3 22 -6 7 -9 13 -6 13 2 0 10 -6 16 -14z m-182 -538
c-3 -8 -6 -5 -6 6 -1 11 2 17 5 13 3 -3 4 -12 1 -19z m-53 -56 c2 -4 -4 -8
-15 -8 -10 0 -19 4 -19 8 0 4 6 8 14 8 8 0 17 -4 20 -8z m-1 -37 c8 -18 -11
-31 -25 -17 -11 11 -3 32 12 32 4 0 10 -7 13 -15z m12 -56 c1 -11 -3 -23 -8
-26 -6 -3 -7 -1 -3 5 4 7 2 12 -4 12 -6 0 -8 5 -4 12 5 8 1 9 -12 5 -19 -7
-19 -7 0 8 22 17 29 13 31 -16z m-25 -209 c0 -5 -5 -10 -11 -10 -5 0 -7 5 -4
10 3 6 8 10 11 10 2 0 4 -4 4 -10z m-63 -13937 c-10 -3 -14 -9 -10 -16 4 -7
-1 -6 -10 2 -22 17 -22 16 11 18 15 0 19 -1 9 -4z"/>
<path d="M24590 44409 c0 -12719 0 -12721 -20 -12716 -12 3 -18 1 -14 -5 3 -5
17 -7 31 -3 14 3 31 1 39 -6 12 -10 14 1796 14 12720 l0 12731 -25 0 -25 0 0
-12721z"/>
<path d="M76480 39020 l0 -10790 1820 0 1820 0 0 8423 c0 4632 0 8427 0 8432
0 10 935 -1852 4172 -8315 1040 -2076 2215 -4422 2612 -5212 l721 -1438 1018
3 1018 2 268 530 c147 292 559 1111 915 1820 357 710 755 1502 886 1760 131
259 475 943 765 1520 290 578 677 1347 860 1710 183 363 725 1441 1205 2395
480 954 1015 2019 1190 2365 175 347 571 1134 881 1750 l564 1120 3 -8432 2
-8433 1820 0 1820 0 0 10790 0 10790 -2826 -2 -2826 -3 -1819 -3785 c-1001
-2082 -1862 -3873 -1913 -3980 -52 -107 -235 -490 -408 -850 -437 -909 -1731
-3600 -2079 -4325 -159 -330 -292 -600 -296 -600 -4 0 -341 695 -750 1545
-408 850 -861 1793 -1007 2095 -145 303 -492 1025 -771 1605 -640 1332 -1783
3710 -2682 5580 -382 795 -833 1732 -1001 2083 l-306 637 -2838 0 -2838 0 0
-10790z"/>
<path d="M103305 49770 c23 -36 208 -338 910 -1480 319 -519 1149 -1869 1675
-2725 257 -418 860 -1399 1340 -2180 1373 -2233 2606 -4241 3374 -5489 l706
-1149 0 -4259 0 -4258 1845 0 1845 0 0 4259 0 4259 1271 2069 c700 1137 1561
2538 1914 3113 353 575 848 1380 1100 1790 252 410 777 1265 1168 1900 390
635 938 1526 1217 1980 279 454 695 1131 925 1505 229 374 422 686 427 693 8
9 -389 12 -1978 12 l-1989 0 -119 -197 c-66 -109 -528 -877 -1026 -1708 -499
-830 -1741 -2898 -2760 -4595 -1019 -1697 -1885 -3138 -1923 -3203 -39 -64
-74 -114 -77 -110 -4 5 -265 438 -580 963 -315 525 -1392 2319 -2393 3985
-1001 1667 -2068 3443 -2371 3947 l-551 918 -1988 0 -1987 0 25 -40z"/>
<path d="M128290 39020 l0 -10790 7005 0 7005 0 0 2145 0 2145 -4600 0 -4600
0 0 8645 0 8645 -2405 0 -2405 0 0 -10790z"/>
<path d="M145520 39020 l0 -10790 2405 0 2405 0 0 10790 0 10790 -2405 0
-2405 0 0 -10790z"/>
<path d="M155340 39020 l0 -10790 4828 0 c4811 0 5190 2 5707 35 2369 150
4082 799 5113 1938 906 999 1406 2101 1548 3407 21 197 30 814 15 1036 -81
1168 -440 2100 -1131 2934 -128 154 -475 503 -630 632 -576 479 -1251 839
-2010 1069 -178 55 -541 149 -571 149 -11 0 -19 3 -19 8 0 4 105 54 233 111
576 258 677 317 1106 638 317 239 445 346 611 512 603 604 975 1363 1134 2316
103 615 113 1329 26 1921 -151 1031 -583 1967 -1308 2834 -364 436 -825 787
-1442 1095 -1120 561 -2445 861 -4130 935 -140 6 -1889 10 -4652 10 l-4428 0
0 -10790z m7985 6701 c455 -31 691 -55 965 -97 406 -62 733 -147 1025 -263
613 -246 944 -724 1052 -1521 26 -191 26 -728 0 -910 -52 -365 -149 -647 -308
-890 -83 -126 -270 -314 -398 -399 -392 -260 -1102 -442 -2034 -521 -465 -39
-692 -44 -2107 -44 l-1365 -1 -3 2333 -2 2333 1507 -4 c953 -3 1567 -9 1668
-16z m600 -8459 c694 -41 1128 -88 1555 -168 492 -92 941 -235 1195 -381 426
-244 696 -607 830 -1116 121 -461 121 -1100 0 -1572 -123 -482 -367 -843 -732
-1088 -354 -236 -950 -426 -1650 -527 -695 -99 -1104 -112 -3363 -108 l-1605
3 -3 2488 -2 2488 1792 -4 c1140 -3 1862 -8 1983 -15z"/>
<path d="M176300 39020 l0 -10790 2405 0 2405 0 0 3445 0 3445 1669 0 1668 0
2394 -3445 2394 -3445 2963 0 2964 0 -45 63 c-24 34 -492 694 -1039 1467
-1023 1446 -3887 5491 -4201 5934 -97 138 -174 253 -170 257 5 4 58 26 118 50
1292 499 2295 1309 2952 2384 514 840 839 1868 963 3045 70 667 80 1515 24
2185 -170 2062 -898 3584 -2181 4558 -1224 929 -3101 1459 -5668 1602 -599 33
-901 35 -5252 35 l-4363 0 0 -10790z m8940 6650 c1186 -44 2036 -226 2592
-553 530 -312 850 -827 992 -1597 101 -549 95 -1315 -15 -1880 -97 -498 -261
-889 -517 -1233 -89 -121 -305 -340 -414 -420 -503 -373 -1266 -593 -2328
-672 -395 -29 -820 -35 -2622 -35 l-1818 0 0 3200 0 3200 1933 0 c1090 0 2047
-4 2197 -10z"/>
<path d="M204941 49788 c-5 -13 -504 -1168 -1109 -2568 -605 -1400 -1272
-2943 -1482 -3430 -2868 -6639 -3935 -9109 -5327 -12330 -762 -1763 -1387
-3211 -1390 -3218 -4 -10 508 -12 2557 -10 l2562 3 644 1495 c354 822 804
1870 1001 2327 l358 833 4529 -3 4528 -2 995 -2310 c547 -1270 997 -2318 1000
-2327 5 -17 136 -18 2568 -18 l2563 0 -53 123 c-387 896 -3574 8272 -5412
12527 -795 1840 -1798 4162 -2230 5160 -431 998 -974 2255 -1206 2792 l-422
978 -2333 0 -2332 0 -9 -22z m3699 -9523 c733 -1710 1335 -3118 1338 -3127 4
-17 -129 -18 -2698 -18 -2158 0 -2701 3 -2697 13 3 6 420 968 926 2137 507
1169 1116 2574 1354 3122 237 548 435 994 438 990 4 -4 607 -1406 1339 -3117z"/>
<path d="M221140 39020 l0 -10790 2405 0 2405 0 0 3445 0 3445 1669 0 1668 0
2394 -3445 2394 -3445 2964 0 c2369 0 2961 3 2954 13 -6 6 -1157 1632 -2558
3612 -1402 1980 -2627 3710 -2722 3844 -95 135 -170 248 -166 252 5 4 58 26
118 50 194 75 405 168 615 273 1881 941 2973 2591 3275 4946 56 444 75 731 82
1265 11 845 -44 1521 -178 2190 -291 1454 -908 2565 -1869 3364 -1041 867
-2606 1411 -4725 1645 -398 44 -727 70 -1395 108 -149 8 -1453 12 -4767 15
l-4563 4 0 -10791z m8940 6650 c1186 -44 2036 -226 2592 -553 531 -313 854
-833 992 -1602 101 -560 95 -1310 -15 -1875 -97 -498 -261 -889 -517 -1233
-89 -121 -305 -340 -414 -420 -503 -373 -1266 -593 -2328 -672 -395 -29 -820
-35 -2622 -35 l-1818 0 0 3200 0 3200 1933 0 c1090 0 2047 -4 2197 -10z"/>
<path d="M239730 49806 c0 -4 203 -360 3923 -6861 1132 -1980 2394 -4185 2803
-4901 l744 -1300 0 -4257 0 -4257 2405 0 2405 0 0 4263 0 4262 878 1535 c483
844 1595 2788 2472 4320 2322 4059 2959 5173 3571 6243 l548 957 -2608 0
-2608 0 -590 -1017 c-325 -560 -1220 -2100 -1988 -3423 -768 -1323 -1550
-2669 -1738 -2993 -266 -458 -344 -584 -353 -575 -6 7 -379 645 -827 1418
-449 773 -1492 2571 -2320 3995 l-1504 2590 -2606 3 c-1434 1 -2607 0 -2607
-2z"/>
<path d="M2145 38567 c-50 -55 -70 -81 -55 -72 20 12 43 12 52 0 7 -10 9 -4
12 46 0 12 9 25 18 28 11 4 14 11 10 18 -6 9 -17 3 -37 -20z"/>
<path d="M2040 38455 c-13 -14 -18 -25 -11 -25 7 0 10 -4 7 -8 -6 -10 30 -9
40 1 4 4 -2 7 -14 7 -15 0 -20 5 -16 15 5 13 9 13 23 3 14 -11 14 -11 4 3 -7
9 -10 19 -6 22 3 4 4 7 1 7 -2 0 -15 -11 -28 -25z"/>
<path d="M1983 38375 c0 -8 4 -12 9 -9 5 3 6 10 3 15 -9 13 -12 11 -12 -6z"/>
<path d="M2080 38372 c0 -8 37 -42 45 -42 3 0 1 8 -4 19 -11 19 -41 36 -41 23z"/>
<path d="M1931 38317 c-12 -15 -11 -17 3 -17 9 0 16 -8 16 -20 0 -15 -9 -21
-40 -26 -23 -4 -38 -9 -35 -12 10 -10 35 -11 41 -1 3 5 23 9 45 9 35 0 39 3
39 25 0 20 -5 25 -24 25 -15 0 -26 7 -28 17 -3 15 -4 15 -17 0z"/>
<path d="M2160 38314 c0 -11 61 -66 66 -61 4 3 -8 19 -25 36 -31 31 -41 37
-41 25z"/>
<path d="M1830 38205 c-7 -9 -10 -18 -7 -21 3 -3 10 4 17 15 13 25 8 27 -10 6z"/>
<path d="M2240 37996 c0 -7 9 -16 21 -19 11 -3 23 -15 26 -26 10 -38 33 -24
33 19 l0 40 -40 0 c-27 0 -40 -4 -40 -14z"/>
<path d="M2640 37972 c0 -8 37 -42 45 -42 3 0 1 8 -4 19 -11 19 -41 36 -41 23z"/>
<path d="M2560 37756 c0 -7 9 -16 21 -19 11 -3 23 -15 26 -26 10 -38 33 -24
33 19 l0 40 -40 0 c-27 0 -40 -4 -40 -14z"/>
<path d="M3060 37653 c0 -12 -6 -23 -12 -26 -7 -2 -9 -8 -5 -13 4 -5 11 -4 15
2 4 6 13 13 20 15 10 3 9 9 -2 24 -15 20 -15 20 -16 -2z"/>
<path d="M2800 37590 c0 -16 7 -20 30 -20 23 0 30 -4 30 -20 0 -11 5 -20 10
-20 6 0 10 9 10 20 0 11 -4 20 -10 20 -5 0 -10 9 -10 20 0 16 -7 20 -30 20
-23 0 -30 -4 -30 -20z"/>
<path d="M3200 37572 c0 -8 37 -42 45 -42 3 0 1 8 -4 19 -11 19 -41 36 -41 23z"/>
<path d="M3418 37403 c7 -3 16 -2 19 1 4 3 -2 6 -13 5 -11 0 -14 -3 -6 -6z"/>
<path d="M3120 37356 c0 -7 9 -16 21 -19 11 -3 23 -15 26 -26 10 -38 33 -24
33 19 l0 40 -40 0 c-27 0 -40 -4 -40 -14z"/>
<path d="M3533 37313 c-22 -8 -14 -23 12 -23 18 0 23 4 19 15 -6 16 -11 17
-31 8z"/>
<path d="M3600 37274 c0 -11 59 -64 71 -64 6 0 -5 16 -25 35 -37 35 -46 40
-46 29z"/>
<path d="M3360 37190 c0 -13 7 -20 20 -20 13 0 20 -7 20 -20 0 -13 7 -20 20
-20 13 0 20 7 20 20 0 13 -7 20 -20 20 -13 0 -20 7 -20 20 0 13 -7 20 -20 20
-13 0 -20 -7 -20 -20z"/>
<path d="M3760 37170 c0 -6 5 -10 11 -10 7 0 18 -8 26 -17 13 -16 13 -16 4 3
-11 23 -41 40 -41 24z"/>
<path d="M3978 37003 c7 -3 16 -2 19 1 4 3 -2 6 -13 5 -11 0 -14 -3 -6 -6z"/>
<path d="M3680 36956 c0 -7 9 -16 21 -19 11 -3 23 -15 26 -26 10 -38 33 -24
33 19 l0 40 -40 0 c-27 0 -40 -4 -40 -14z"/>
<path d="M4080 36936 c0 -6 38 -46 44 -46 12 0 -13 37 -29 44 -8 3 -15 4 -15
2z"/>
<path d="M4160 36874 c0 -11 61 -66 66 -61 4 3 -8 19 -25 36 -31 31 -41 37
-41 25z"/>
<path d="M4240 36556 c0 -7 9 -16 21 -19 11 -3 23 -15 26 -26 10 -38 33 -24
33 19 l0 40 -40 0 c-27 0 -40 -4 -40 -14z"/>
<path d="M4640 36532 c0 -8 37 -42 45 -42 3 0 1 8 -4 19 -11 19 -41 36 -41 23z"/>
<path d="M4560 36316 c0 -7 9 -16 21 -19 11 -3 23 -15 26 -26 10 -38 33 -24
33 19 l0 40 -40 0 c-27 0 -40 -4 -40 -14z"/>
<path d="M5060 36213 c0 -12 -6 -23 -12 -26 -7 -2 -9 -8 -5 -13 4 -5 11 -4 15
2 4 6 13 13 20 15 10 3 9 9 -2 24 -15 20 -15 20 -16 -2z"/>
<path d="M4800 36150 c0 -16 7 -20 30 -20 23 0 30 -4 30 -20 0 -11 5 -20 10
-20 6 0 10 9 10 20 0 11 -4 20 -10 20 -5 0 -10 9 -10 20 0 16 -7 20 -30 20
-23 0 -30 -4 -30 -20z"/>
<path d="M5200 36132 c0 -8 37 -42 45 -42 3 0 1 8 -4 19 -11 19 -41 36 -41 23z"/>
<path d="M5418 35963 c7 -3 16 -2 19 1 4 3 -2 6 -13 5 -11 0 -14 -3 -6 -6z"/>
<path d="M5120 35916 c0 -7 9 -16 21 -19 11 -3 23 -15 26 -26 10 -38 33 -24
33 19 l0 40 -40 0 c-27 0 -40 -4 -40 -14z"/>
<path d="M5520 35892 c0 -8 37 -42 45 -42 3 0 1 8 -4 19 -11 19 -41 36 -41 23z"/>
<path d="M5600 35834 c0 -11 59 -64 71 -64 6 0 -5 16 -25 35 -37 35 -46 40
-46 29z"/>
<path d="M5978 35563 c7 -3 16 -2 19 1 4 3 -2 6 -13 5 -11 0 -14 -3 -6 -6z"/>
<path d="M5680 35516 c0 -7 9 -16 21 -19 11 -3 23 -15 26 -26 10 -38 33 -24
33 19 l0 40 -40 0 c-27 0 -40 -4 -40 -14z"/>
<path d="M6088 35523 c7 -3 16 -2 19 1 4 3 -2 6 -13 5 -11 0 -14 -3 -6 -6z"/>
<path d="M6080 35492 c0 -8 37 -42 45 -42 3 0 1 8 -4 19 -11 19 -41 36 -41 23z"/>
<path d="M6160 35434 c0 -11 61 -66 66 -61 4 3 -8 19 -25 36 -31 31 -41 37
-41 25z"/>
<path d="M6000 35276 c0 -7 9 -16 21 -19 11 -3 23 -15 26 -26 10 -38 33 -24
33 19 l0 40 -40 0 c-27 0 -40 -4 -40 -14z"/>
<path d="M6538 35163 c7 -3 16 -2 19 1 4 3 -2 6 -13 5 -11 0 -14 -3 -6 -6z"/>
<path d="M6240 35116 c0 -7 9 -16 21 -19 11 -3 23 -15 26 -26 10 -38 33 -24
33 19 l0 40 -40 0 c-27 0 -40 -4 -40 -14z"/>
<path d="M6640 35092 c0 -8 37 -42 45 -42 3 0 1 8 -4 19 -11 19 -41 36 -41 23z"/>
<path d="M6560 34876 c0 -7 9 -16 21 -19 11 -3 23 -15 26 -26 10 -38 33 -24
33 19 l0 40 -40 0 c-27 0 -40 -4 -40 -14z"/>
<path d="M6973 34833 c-22 -8 -14 -23 12 -23 18 0 23 4 19 15 -6 16 -11 17
-31 8z"/>
<path d="M7060 34773 c0 -12 -6 -23 -12 -26 -7 -2 -9 -8 -5 -13 4 -5 11 -4 15
2 4 6 13 13 20 15 10 3 9 9 -2 24 -15 20 -15 20 -16 -2z"/>
<path d="M6800 34710 c0 -16 7 -20 30 -20 23 0 30 -4 30 -20 0 -11 5 -20 10
-20 6 0 10 9 10 20 0 11 -4 20 -10 20 -5 0 -10 9 -10 20 0 16 -7 20 -30 20
-23 0 -30 -4 -30 -20z"/>
<path d="M7200 34690 c0 -6 5 -10 11 -10 7 0 18 -8 26 -17 13 -16 13 -16 4 3
-11 23 -41 40 -41 24z"/>
<path d="M7490 34536 c0 -2 7 -9 15 -16 12 -10 15 -10 15 4 0 9 -7 16 -15 16
-8 0 -15 -2 -15 -4z"/>
<path d="M7418 34523 c7 -3 16 -2 19 1 4 3 -2 6 -13 5 -11 0 -14 -3 -6 -6z"/>
<path d="M7120 34476 c0 -7 9 -16 21 -19 11 -3 23 -15 26 -26 10 -38 33 -24
33 19 l0 40 -40 0 c-27 0 -40 -4 -40 -14z"/>
<path d="M7520 34452 c0 -8 37 -42 45 -42 3 0 1 8 -4 19 -11 19 -41 36 -41 23z"/>
<path d="M7600 34394 c0 -11 59 -64 71 -64 6 0 -5 16 -25 35 -37 35 -46 40
-46 29z"/>
<path d="M7988 34163 c6 -2 18 -2 25 0 6 3 1 5 -13 5 -14 0 -19 -2 -12 -5z"/>
<path d="M7978 34123 c7 -3 16 -2 19 1 4 3 -2 6 -13 5 -11 0 -14 -3 -6 -6z"/>
<path d="M7680 34076 c0 -7 9 -16 21 -19 11 -3 23 -15 26 -26 10 -38 33 -24
33 19 l0 40 -40 0 c-27 0 -40 -4 -40 -14z"/>
<path d="M8088 34083 c7 -3 16 -2 19 1 4 3 -2 6 -13 5 -11 0 -14 -3 -6 -6z"/>
<path d="M8080 34052 c0 -8 37 -42 45 -42 3 0 1 8 -4 19 -11 19 -41 36 -41 23z"/>
<path d="M8225 34000 c3 -5 8 -10 11 -10 2 0 4 5 4 10 0 6 -5 10 -11 10 -5 0
-7 -4 -4 -10z"/>
<path d="M8160 33994 c0 -10 50 -54 61 -54 5 0 -4 14 -21 30 -31 30 -40 36
-40 24z"/>
<path d="M8000 33836 c0 -7 9 -16 21 -19 11 -3 23 -15 26 -26 10 -38 33 -24
33 19 l0 40 -40 0 c-27 0 -40 -4 -40 -14z"/>
<path d="M8538 33723 c7 -3 16 -2 19 1 4 3 -2 6 -13 5 -11 0 -14 -3 -6 -6z"/>
<path d="M8240 33676 c0 -7 9 -16 21 -19 11 -3 23 -15 26 -26 10 -38 33 -24
33 19 l0 40 -40 0 c-27 0 -40 -4 -40 -14z"/>
<path d="M8640 33652 c0 -8 37 -42 45 -42 3 0 1 8 -4 19 -11 19 -41 36 -41 23z"/>
<path d="M8858 33483 c7 -3 16 -2 19 1 4 3 -2 6 -13 5 -11 0 -14 -3 -6 -6z"/>
<path d="M8560 33436 c0 -7 9 -16 21 -19 11 -3 23 -15 26 -26 10 -38 33 -24
33 19 l0 40 -40 0 c-27 0 -40 -4 -40 -14z"/>
<path d="M8973 33393 c-22 -8 -14 -23 12 -23 18 0 23 4 19 15 -6 16 -11 17
-31 8z"/>
<path d="M9060 33333 c0 -12 -6 -23 -12 -26 -7 -2 -9 -8 -5 -13 4 -5 11 -4 15
2 4 6 13 13 20 15 10 3 9 9 -2 24 -15 20 -15 20 -16 -2z"/>
<path d="M8800 33270 c0 -16 7 -20 30 -20 23 0 30 -4 30 -20 0 -11 5 -20 10
-20 6 0 10 9 10 20 0 11 -4 20 -10 20 -5 0 -10 9 -10 20 0 16 -7 20 -30 20
-23 0 -30 -4 -30 -20z"/>
<path d="M9200 33250 c0 -6 5 -10 11 -10 7 0 18 -8 26 -17 13 -16 13 -16 4 3
-11 23 -41 40 -41 24z"/>
<path d="M9490 33096 c0 -2 7 -9 15 -16 12 -10 15 -10 15 4 0 9 -7 16 -15 16
-8 0 -15 -2 -15 -4z"/>
<path d="M9418 33083 c7 -3 16 -2 19 1 4 3 -2 6 -13 5 -11 0 -14 -3 -6 -6z"/>
<path d="M9120 33036 c0 -7 9 -16 21 -19 11 -3 23 -15 26 -26 10 -38 33 -24
33 19 l0 40 -40 0 c-27 0 -40 -4 -40 -14z"/>
<path d="M9520 33012 c0 -8 37 -42 45 -42 3 0 1 8 -4 19 -11 19 -41 36 -41 23z"/>
<path d="M9600 32954 c0 -11 59 -64 71 -64 6 0 -5 16 -25 35 -37 35 -46 40
-46 29z"/>
<path d="M9988 32723 c6 -2 18 -2 25 0 6 3 1 5 -13 5 -14 0 -19 -2 -12 -5z"/>
<path d="M9978 32683 c7 -3 16 -2 19 1 4 3 -2 6 -13 5 -11 0 -14 -3 -6 -6z"/>
<path d="M9680 32636 c0 -7 9 -16 21 -19 11 -3 23 -15 26 -26 10 -38 33 -24
33 19 l0 40 -40 0 c-27 0 -40 -4 -40 -14z"/>
<path d="M10080 32612 c0 -8 37 -42 45 -42 3 0 1 8 -4 19 -11 19 -41 36 -41
23z"/>
<path d="M10225 32560 c3 -5 8 -10 11 -10 2 0 4 5 4 10 0 6 -5 10 -11 10 -5 0
-7 -4 -4 -10z"/>
<path d="M10160 32554 c0 -10 50 -54 61 -54 5 0 -4 14 -21 30 -31 30 -40 36
-40 24z"/>
<path d="M10000 32396 c0 -7 9 -16 21 -19 11 -3 23 -15 26 -26 10 -38 33 -24
33 19 l0 40 -40 0 c-27 0 -40 -4 -40 -14z"/>
<path d="M10563 32295 c0 -22 2 -30 4 -17 2 12 2 30 0 40 -3 9 -5 -1 -4 -23z"/>
<path d="M10580 32320 c0 -5 5 -10 10 -10 6 0 10 5 10 10 0 6 -4 10 -10 10 -5
0 -10 -4 -10 -10z"/>
<path d="M10500 32293 c0 -12 -6 -23 -12 -26 -7 -2 -9 -8 -5 -13 4 -5 11 -4
15 2 4 6 13 13 20 15 10 3 9 9 -2 24 -15 20 -15 20 -16 -2z"/>
<path d="M10240 32236 c0 -7 9 -16 21 -19 11 -3 23 -15 26 -26 10 -38 33 -24
33 19 l0 40 -40 0 c-27 0 -40 -4 -40 -14z"/>
<path d="M10584 32100 c0 -85 2 -120 3 -77 2 42 2 112 0 155 -1 42 -3 7 -3
-78z"/>
<path d="M24611 31655 c9 -11 19 -27 22 -35 5 -13 6 -13 6 1 1 9 -9 24 -21 35
-23 19 -23 19 -7 -1z"/>
<path d="M24680 31586 c0 -2 8 -10 18 -17 15 -13 16 -12 3 4 -13 16 -21 21
-21 13z"/>
<path d="M24730 31520 c0 -5 6 -10 14 -10 7 0 19 -7 26 -15 15 -18 23 -13 27
15 3 23 -7 26 -25 8 -9 -9 -12 -9 -12 0 0 7 -7 12 -15 12 -8 0 -15 -4 -15 -10z
m57 -15 c0 -8 -4 -12 -9 -9 -5 3 -6 10 -3 15 9 13 12 11 12 -6z"/>
<path d="M24790 31450 c6 -11 16 -17 25 -14 9 4 21 1 28 -4 7 -6 19 -7 26 -3
19 12 1 20 -37 17 -21 -1 -32 2 -32 11 0 7 -5 13 -10 13 -7 0 -7 -6 0 -20z"/>
<path d="M131710 20553 c-19 -1 -84 -8 -145 -13 -403 -39 -815 -161 -1120
-332 -597 -336 -999 -887 -1184 -1623 -144 -575 -169 -1336 -65 -1945 187
-1086 769 -1766 1709 -1996 290 -71 472 -89 875 -89 425 1 686 29 1101 120
281 61 812 204 831 223 4 4 -1 297 -12 652 -16 541 -17 711 -9 1053 6 225 8
411 5 414 -3 3 -153 -7 -333 -21 -180 -14 -333 -26 -339 -26 -8 0 -10 -136 -7
-492 4 -468 -7 -1071 -20 -1084 -3 -3 -65 -24 -139 -45 -463 -138 -797 -188
-1158 -175 -570 20 -977 176 -1277 490 -253 265 -413 645 -487 1156 -51 357
-56 848 -10 1239 90 780 386 1328 878 1626 454 276 1189 343 1807 165 220 -63
529 -202 783 -353 104 -62 110 -64 149 -55 23 5 43 11 45 13 2 2 35 151 73
332 38 180 70 335 73 345 4 20 -118 82 -319 163 -458 184 -909 267 -1434 263
-130 0 -252 -3 -271 -5z"/>
<path d="M217897 20545 c-814 -103 -1409 -589 -1574 -1285 -31 -131 -42 -387
-24 -534 38 -296 147 -508 390 -759 212 -219 440 -363 1067 -673 399 -197 574
-291 724 -389 232 -150 345 -259 414 -399 158 -321 87 -722 -178 -1003 -246
-261 -641 -393 -1062 -354 -463 44 -928 247 -1255 549 l-67 62 -51 -21 c-28
-12 -51 -25 -51 -30 0 -4 -20 -174 -45 -376 -43 -350 -45 -368 -28 -381 34
-25 258 -130 377 -177 218 -85 511 -160 791 -202 173 -25 613 -25 775 0 824
131 1414 639 1572 1354 18 83 22 131 22 308 1 220 -8 291 -56 438 -71 222
-252 471 -481 664 -193 161 -395 279 -962 559 -618 304 -764 393 -936 563
-157 156 -214 255 -246 426 -29 157 4 350 86 513 51 100 96 161 178 245 436
440 1226 430 1897 -26 l109 -74 60 18 c32 10 61 19 62 21 5 5 123 702 120 706
-2 2 -64 26 -140 53 -243 89 -489 152 -740 191 -171 26 -589 34 -748 13z"/>
<path d="M253675 20554 c-16 -2 -82 -11 -145 -20 -763 -105 -1347 -599 -1507
-1274 -31 -131 -42 -387 -24 -534 40 -314 167 -546 442 -811 194 -185 424
-326 1024 -625 540 -269 704 -363 903 -518 190 -146 288 -331 307 -574 9 -109
-8 -229 -49 -351 -119 -350 -450 -611 -862 -681 -283 -48 -569 -20 -888 85
-299 98 -566 252 -777 447 l-67 62 -51 -21 c-28 -12 -51 -24 -51 -28 0 -3 -20
-172 -45 -376 -43 -352 -45 -371 -28 -383 32 -24 255 -129 377 -177 219 -86
512 -161 791 -202 173 -25 614 -25 775 0 824 131 1414 639 1572 1354 18 83 22
131 22 308 1 220 -8 291 -56 438 -71 222 -252 471 -481 664 -193 161 -395 279
-962 559 -618 304 -764 393 -936 563 -157 156 -214 255 -246 426 -29 157 4
350 86 513 51 100 96 161 178 245 437 441 1225 430 1897 -26 l109 -74 60 18
c32 10 61 19 62 21 5 5 123 702 120 706 -7 8 -292 107 -393 137 -330 94 -540
126 -872 130 -140 2 -268 1 -285 -1z"/>
<path d="M114455 20533 c-451 -8 -821 -16 -823 -18 -2 -1 7 -930 20 -2063 l23
-2060 -23 -887 c-13 -488 -22 -889 -20 -890 4 -4 373 -23 688 -35 135 -6 513
-13 840 -16 502 -6 621 -4 760 9 406 40 733 129 1035 282 249 126 432 261 618
454 471 492 726 1168 788 2085 15 223 6 721 -15 896 -89 717 -324 1240 -732
1630 -345 331 -780 523 -1369 606 -168 24 -755 26 -1790 7z m1623 -617 c525
-81 898 -300 1154 -681 274 -408 403 -987 385 -1740 -21 -851 -215 -1433 -612
-1830 -268 -268 -579 -413 -1020 -477 -173 -25 -1002 -11 -1470 25 l-150 12
-6 200 c-20 622 -21 1393 -4 2890 9 869 19 1582 21 1584 2 2 89 8 193 13 644
30 1326 32 1509 4z"/>
<path d="M176243 20523 l-813 -3 1 -173 c0 -94 10 -1023 22 -2063 l22 -1890
-22 -820 c-12 -450 -22 -852 -22 -891 l-1 -73 370 0 370 0 0 93 c0 50 -7 391
-15 757 -8 366 -15 792 -15 948 l0 282 463 0 c499 0 616 8 857 56 273 55 585
185 790 331 123 88 336 301 422 423 174 246 285 538 339 893 30 190 32 571 6
751 -60 401 -196 686 -442 925 -249 242 -562 380 -985 435 -154 20 -385 23
-1347 19z m985 -614 c548 -59 891 -318 1006 -760 63 -242 69 -536 16 -811
-107 -556 -475 -923 -1040 -1038 -94 -19 -115 -20 -576 -10 -263 6 -481 14
-484 18 -7 8 20 2575 27 2582 5 5 605 26 826 28 70 1 171 -3 225 -9z"/>
<path d="M194478 20523 l-738 -3 1 -173 c0 -94 10 -1024 22 -2065 l22 -1893
-23 -886 c-13 -487 -22 -887 -20 -888 2 -2 93 -9 203 -16 133 -9 426 -14 870
-14 586 0 689 2 820 18 442 54 713 126 1000 267 458 225 718 566 806 1056 31
170 31 488 1 654 -53 293 -177 530 -369 710 -180 168 -445 300 -747 372 -53
12 -96 25 -96 29 0 3 19 15 42 25 23 10 82 42 130 71 450 266 698 728 698
1303 0 407 -114 726 -345 969 -220 231 -529 375 -935 436 -120 18 -407 36
-525 32 -44 -1 -412 -3 -817 -4z m1003 -614 c415 -42 651 -174 775 -434 91
-191 116 -487 64 -755 -75 -389 -311 -645 -715 -776 l-110 -36 -485 12 c-267
6 -500 13 -517 16 l-33 5 5 222 c3 122 8 567 11 990 l6 767 448 0 c246 0 494
-5 551 -11z m229 -2594 c341 -55 601 -174 772 -353 145 -152 216 -319 237
-555 30 -344 -73 -640 -292 -843 -191 -177 -487 -299 -852 -351 -109 -15 -190
-18 -505 -17 -327 1 -582 12 -594 25 -8 10 -26 1061 -26 1556 l0 543 198 3
c644 9 968 7 1062 -8z"/>
<path d="M244133 20523 l-813 -3 1 -173 c0 -94 10 -1023 22 -2063 l22 -1890
-22 -820 c-12 -450 -22 -852 -22 -891 l-1 -73 370 0 370 0 0 93 c0 50 -7 391
-15 757 -8 366 -15 819 -15 1008 l0 342 537 -2 537 -3 164 -285 c308 -539 643
-1086 1012 -1654 159 -243 180 -272 228 -303 l54 -35 86 12 c137 18 305 58
453 106 145 47 149 50 149 114 0 18 -66 114 -216 315 -471 630 -932 1301
-1241 1806 l-71 115 83 42 c774 397 1188 1118 1127 1965 -32 440 -162 766
-411 1029 -221 236 -574 404 -963 462 -126 19 -408 37 -528 33 -47 -1 -451 -3
-897 -4z m998 -614 c359 -36 642 -163 809 -362 176 -209 261 -544 230 -915
-33 -405 -162 -687 -418 -915 -125 -110 -317 -217 -515 -286 l-88 -31 -556 15
c-306 8 -557 16 -557 17 -5 7 26 2454 31 2458 5 5 608 26 829 28 73 1 178 -3
235 -9z"/>
<path d="M123451 20348 c0 -95 10 -1024 22 -2064 l22 -1890 -22 -820 c-12
-450 -22 -852 -22 -891 l-1 -73 372 0 371 0 -6 263 c-30 1232 -31 1588 -14
3201 10 880 21 1791 24 2024 l6 422 -376 0 -377 0 1 -172z"/>
<path d="M139041 20348 c0 -95 10 -1024 22 -2064 l22 -1890 -22 -820 c-12
-450 -22 -852 -22 -891 l-1 -73 372 0 371 0 -6 263 c-30 1231 -31 1588 -14
3200 10 881 20 1792 24 2025 l6 422 -376 0 -377 0 1 -172z"/>
<path d="M144647 20483 c-3 -21 -16 -150 -28 -286 -23 -243 -23 -248 -5 -282
19 -34 21 -35 80 -35 34 0 266 11 516 25 292 16 567 25 768 25 l312 0 0 -52
c1 -29 11 -825 24 -1768 l23 -1715 -23 -745 c-12 -410 -25 -811 -28 -892 l-6
-148 371 0 371 0 -8 643 c-11 817 -11 1982 0 3490 l8 1187 312 0 c203 0 468
-9 766 -25 250 -14 478 -25 506 -25 l51 0 27 281 27 281 -27 39 -27 39 -2002
0 -2002 0 -6 -37z"/>
<path d="M154567 20513 c-4 -6 -2087 -5683 -2153 -5865 l-13 -38 367 0 367 0
73 312 c72 307 77 321 249 793 97 264 181 485 187 491 8 8 190 15 605 24 478
10 723 10 1255 0 364 -7 662 -14 664 -15 2 -2 78 -230 168 -506 136 -416 177
-555 234 -798 39 -162 70 -296 70 -298 0 -2 169 -3 376 -3 353 0 375 1 370 18
-3 9 -446 1338 -984 2952 l-979 2935 -426 3 c-234 1 -428 -1 -430 -5z m440
-765 c4 -7 222 -663 484 -1458 l476 -1445 -141 -8 c-184 -10 -1629 -10 -1812
0 l-140 8 530 1445 c292 795 535 1451 539 1458 5 6 19 12 32 12 13 0 27 -6 32
-12z"/>
<path d="M162300 20508 c1 -7 11 -938 24 -2068 24 -2037 24 -2061 6 -2765 -10
-390 -21 -790 -25 -887 l-6 -178 1455 0 1454 0 6 38 c10 64 56 470 56 496 0
14 -12 38 -26 55 l-26 31 -1091 2 -1092 3 -14 600 c-12 542 -11 786 8 2515 12
1053 21 1972 21 2043 l0 127 -375 0 c-294 0 -375 -3 -375 -12z"/>
<path d="M183930 20513 c-1 -5 -1 -917 -1 -2028 0 -2037 1 -2102 37 -2315 134
-801 625 -1349 1382 -1541 239 -60 364 -73 712 -73 339 -1 432 8 670 60 603
134 1047 460 1315 966 144 273 226 585 255 968 11 138 33 3945 23 3963 -2 4
-168 7 -369 7 l-365 0 6 -322 c3 -178 13 -1051 21 -1942 16 -1710 16 -1751
-27 -1976 -115 -597 -482 -953 -1094 -1062 -113 -20 -162 -23 -380 -22 -211 0
-268 4 -366 22 -348 64 -613 208 -791 431 -194 242 -292 524 -328 936 -11 124
-3 1901 16 3423 l6 512 -361 0 c-199 0 -361 -3 -361 -7z"/>
<path d="M202530 20508 c1 -7 11 -938 24 -2068 24 -2037 24 -2061 6 -2765 -10
-390 -21 -790 -25 -887 l-6 -178 1455 0 1454 0 6 38 c10 64 56 470 56 496 0
14 -12 38 -26 55 l-26 31 -1092 0 -1093 0 -13 668 c-11 596 -10 861 9 2482 12
998 21 1888 21 1978 l0 162 -375 0 c-294 0 -375 -3 -375 -12z"/>
<path d="M210261 20348 c0 -95 10 -1024 22 -2064 l22 -1891 -22 -819 c-12
-450 -22 -852 -22 -891 l-1 -73 372 0 371 0 -6 263 c-30 1232 -31 1588 -14
3201 10 880 21 1791 24 2024 l6 422 -376 0 -377 0 1 -172z"/>
<path d="M224841 20178 c0 -189 6 -1118 12 -2065 10 -1335 10 -1888 0 -2465
-6 -409 -12 -809 -12 -890 l-1 -148 361 0 361 0 -9 593 c-4 325 -8 925 -8
1332 l0 740 1571 3 1572 2 7 -357 c8 -333 -16 -2043 -31 -2240 l-5 -73 367 0
366 0 -6 338 c-16 900 -16 1646 -2 3227 8 946 17 1861 20 2033 l5 312 -369 0
c-203 0 -371 -3 -373 -7 -2 -5 3 -592 10 -1306 8 -714 12 -1302 8 -1305 -11
-12 -3123 -8 -3133 3 -4 6 -3 486 4 1070 7 583 13 1169 13 1303 l1 242 -365 0
-365 0 1 -342z"/>
<path d="M235001 20348 c0 -95 10 -1024 22 -2064 l22 -1890 -22 -820 c-12
-450 -22 -852 -22 -892 l-1 -72 1657 2 1657 3 28 283 27 283 -21 34 -20 35
-96 0 c-54 0 -331 -7 -617 -15 -526 -15 -1652 -20 -1801 -9 l-81 7 -7 216 c-3
119 -9 590 -12 1047 l-7 832 459 7 c268 5 702 3 1044 -3 322 -6 586 -10 586
-9 1 1 17 129 34 284 l32 282 -23 31 -24 31 -235 -6 c-555 -13 -1043 -16
-1435 -8 l-420 8 3 220 c1 121 5 556 8 967 l6 747 42 6 c71 9 1506 10 2026 1
l496 -8 27 287 28 287 -21 34 -22 34 -1659 0 -1659 0 1 -172z"/>
<path d="M23200 7271 c0 -170 1 -179 20 -184 11 -3 20 -12 20 -21 0 -9 8 -16
20 -16 11 0 20 -4 20 -10 0 -5 7 -10 15 -10 8 0 19 -9 25 -20 6 -11 17 -20 25
-20 8 0 15 -4 15 -10 0 -5 9 -10 20 -10 11 0 23 -6 26 -14 3 -8 19 -18 36 -21
18 -4 32 -15 35 -26 4 -14 14 -19 43 -19 29 0 39 -5 43 -19 3 -11 17 -22 35
-26 17 -3 36 -13 43 -21 6 -8 18 -14 25 -14 8 0 14 -4 14 -10 0 -5 7 -10 15
-10 8 0 19 -9 25 -20 6 -11 17 -20 25 -20 8 0 15 -4 15 -10 0 -5 8 -10 19 -10
10 0 21 -9 24 -20 4 -15 14 -20 37 -20 23 0 33 -5 37 -20 3 -11 12 -20 20 -20
8 0 20 -6 27 -12 8 -7 24 -20 36 -28 12 -8 28 -21 36 -27 7 -7 20 -13 29 -13
8 0 18 -6 21 -14 3 -8 19 -18 36 -21 18 -4 32 -15 35 -26 4 -13 14 -19 35 -19
29 0 88 -46 88 -69 0 -6 18 -11 40 -11 22 0 40 -4 40 -10 0 -5 7 -10 15 -10 8
0 19 -9 25 -20 6 -11 17 -20 25 -20 8 0 15 -4 15 -10 0 -5 8 -10 19 -10 10 0
21 -9 24 -20 4 -15 14 -20 37 -20 23 0 33 -5 37 -20 3 -11 12 -20 20 -20 8 0
20 -6 27 -12 8 -7 24 -20 36 -28 12 -8 28 -21 36 -27 7 -7 20 -13 29 -13 8 0
18 -6 21 -14 3 -8 19 -18 36 -21 17 -4 32 -15 35 -25 3 -11 18 -21 37 -24 20
-4 44 -20 62 -41 23 -28 36 -35 65 -35 28 0 45 -9 79 -40 24 -22 51 -40 60
-40 10 0 20 -9 23 -20 4 -15 14 -20 37 -20 23 0 33 -5 37 -20 3 -11 12 -20 20
-20 8 0 20 -6 27 -12 8 -7 24 -20 36 -28 12 -8 28 -21 36 -27 7 -7 20 -13 29
-13 8 0 18 -6 21 -14 3 -8 19 -18 36 -21 17 -4 32 -15 35 -25 3 -11 18 -21 37
-24 20 -4 44 -20 62 -41 20 -25 37 -35 57 -35 35 0 63 -15 100 -52 16 -15 37
-28 47 -28 10 0 20 -9 23 -20 4 -15 14 -20 37 -20 23 0 33 -5 37 -20 3 -11 14
-20 24 -20 11 0 19 -4 19 -10 0 -5 7 -10 15 -10 8 0 19 -9 25 -20 6 -11 17
-20 25 -20 8 0 15 -4 15 -10 0 -5 8 -10 19 -10 10 0 21 -9 24 -20 4 -15 14
-20 37 -20 23 0 33 -5 37 -19 3 -11 17 -21 36 -25 26 -5 87 -56 87 -72 0 -2
-10 -4 -22 -4 -22 -1 -22 -1 -4 -12 15 -8 21 -8 24 0 5 15 52 16 52 2 0 -5 7
-10 15 -10 8 0 15 -4 15 -9 0 -5 9 -11 20 -14 11 -3 20 -12 20 -21 0 -12 10
-16 39 -16 30 0 40 -4 44 -19 3 -11 17 -22 35 -26 17 -3 36 -13 43 -21 6 -8
18 -14 25 -14 8 0 14 -4 14 -10 0 -5 7 -10 15 -10 8 0 19 -9 25 -20 6 -11 17
-20 25 -20 8 0 15 -4 15 -10 0 -5 8 -10 19 -10 10 0 21 -9 24 -20 4 -15 14
-20 37 -20 23 0 33 -5 37 -20 3 -11 14 -20 24 -20 11 0 19 -4 19 -10 0 -5 7
-10 15 -10 8 0 19 -9 25 -20 6 -11 17 -20 25 -20 8 0 15 -4 15 -10 0 -5 9 -10
20 -10 11 0 23 -6 26 -14 3 -8 19 -18 36 -21 18 -4 32 -15 35 -26 4 -14 14
-19 43 -19 29 0 39 -5 43 -19 3 -11 17 -22 35 -26 17 -3 36 -13 43 -21 6 -8
18 -14 25 -14 8 0 14 -4 14 -10 0 -5 7 -10 15 -10 8 0 19 -9 25 -20 6 -11 17
-20 25 -20 8 0 15 -4 15 -10 0 -5 8 -10 19 -10 10 0 21 -9 24 -20 4 -15 14
-20 37 -20 23 0 33 -5 37 -20 3 -11 12 -20 20 -20 8 0 20 -6 27 -12 8 -7 24
-20 36 -28 12 -8 28 -21 36 -27 7 -7 20 -13 29 -13 8 0 18 -6 21 -14 3 -8 19
-18 36 -21 18 -4 32 -15 35 -26 4 -13 14 -19 35 -19 29 0 88 -46 88 -69 0 -6
18 -11 40 -11 22 0 40 -4 40 -10 0 -5 7 -10 15 -10 8 0 19 -9 25 -20 6 -11 17
-20 25 -20 8 0 15 -4 15 -10 0 -5 8 -10 19 -10 10 0 21 -9 24 -20 4 -15 14
-20 37 -20 23 0 33 -5 37 -20 3 -11 12 -20 20 -20 8 0 20 -6 27 -12 8 -7 24
-20 36 -28 12 -8 28 -21 36 -27 7 -7 20 -13 29 -13 8 0 18 -6 21 -14 3 -8 19
-18 36 -21 17 -4 32 -15 35 -25 3 -11 18 -21 37 -24 20 -4 44 -20 62 -41 23
-28 36 -35 65 -35 28 0 45 -9 79 -40 24 -22 51 -40 60 -40 10 0 20 -9 23 -20
4 -15 14 -20 37 -20 23 0 33 -5 37 -20 3 -11 12 -20 20 -20 8 0 20 -6 27 -12
8 -7 24 -20 36 -28 12 -8 28 -21 36 -27 7 -7 20 -13 29 -13 8 0 18 -6 21 -14
3 -8 19 -18 36 -21 17 -4 32 -15 35 -25 3 -11 18 -21 37 -24 20 -4 44 -20 62
-41 20 -25 37 -35 57 -35 35 0 63 -15 100 -52 16 -15 37 -28 47 -28 10 0 20
-9 23 -20 4 -15 14 -20 37 -20 23 0 33 -5 37 -20 3 -11 14 -20 24 -20 11 0 19
-4 19 -10 0 -5 7 -10 15 -10 8 0 19 -9 25 -20 6 -11 17 -20 25 -20 8 0 15 -4
15 -10 0 -5 8 -10 19 -10 10 0 21 -9 24 -20 4 -15 14 -20 37 -20 23 0 33 -5
37 -19 3 -11 17 -21 36 -25 26 -5 87 -56 87 -72 0 -2 -10 -4 -22 -4 -22 -1
-22 -1 -4 -12 15 -8 21 -8 24 0 5 15 52 16 52 2 0 -5 7 -10 15 -10 8 0 15 -4
15 -9 0 -5 9 -11 20 -14 11 -3 20 -12 20 -21 0 -12 10 -16 39 -16 30 0 40 -4
44 -19 3 -11 17 -22 35 -26 17 -3 36 -13 43 -21 6 -8 18 -14 25 -14 8 0 14 -4
14 -10 0 -5 7 -10 15 -10 8 0 19 -9 25 -20 6 -11 17 -20 25 -20 8 0 15 -4 15
-10 0 -5 8 -10 19 -10 10 0 21 -9 24 -20 4 -15 14 -20 37 -20 23 0 33 -5 37
-20 3 -11 14 -20 24 -20 11 0 19 -4 19 -10 0 -5 7 -10 15 -10 8 0 19 -9 25
-20 6 -11 17 -20 25 -20 8 0 15 -4 15 -10 0 -5 9 -10 20 -10 11 0 23 -6 26
-14 3 -8 19 -18 36 -21 18 -4 32 -15 35 -26 4 -14 14 -19 43 -19 29 0 39 -5
43 -19 3 -11 17 -22 35 -26 17 -3 36 -13 43 -21 10 -12 1714 -14 12910 -14
l12899 0 0 825 0 825 -14043 0 c-11221 0 -14046 -3 -14056 -13 -11 -10 -12 -9
-6 2 6 11 0 13 -29 9 l-36 -4 0 1658 0 1658 -2480 0 -2480 0 0 -179z m517
-137 c-3 -3 -12 -4 -19 -1 -8 3 -5 6 6 6 11 1 17 -2 13 -5z m-200 -130 c-3 -3
-12 -4 -19 -1 -8 3 -5 6 6 6 11 1 17 -2 13 -5z m83 -44 c0 -5 -6 -10 -14 -10
-8 0 -18 5 -21 10 -3 6 3 10 14 10 12 0 21 -4 21 -10z m80 -60 c0 -5 -4 -10
-10 -10 -5 0 -10 5 -10 10 0 6 5 10 10 10 6 0 10 -4 10 -10z m160 -100 c0 -5
-4 -10 -9 -10 -6 0 -13 5 -16 10 -3 6 1 10 9 10 9 0 16 -4 16 -10z m575 -100
c3 -5 1 -10 -4 -10 -6 0 -11 5 -11 10 0 6 2 10 4 10 3 0 8 -4 11 -10z m-258
-96 c-3 -3 -12 -4 -19 -1 -8 3 -5 6 6 6 11 1 17 -2 13 -5z m83 -44 c0 -5 -6
-10 -14 -10 -8 0 -18 5 -21 10 -3 6 3 10 14 10 12 0 21 -4 21 -10z m80 -60 c0
-5 -4 -10 -10 -10 -5 0 -10 5 -10 10 0 6 5 10 10 10 6 0 10 -4 10 -10z m160
-100 c0 -5 -4 -10 -9 -10 -6 0 -13 5 -16 10 -3 6 1 10 9 10 9 0 16 -4 16 -10z
m317 -196 c-3 -3 -12 -4 -19 -1 -8 3 -5 6 6 6 11 1 17 -2 13 -5z m83 -44 c0
-5 -9 -10 -20 -10 -11 0 -20 5 -20 10 0 6 9 10 20 10 11 0 20 -4 20 -10z m80
-60 c0 -5 -4 -10 -10 -10 -5 0 -10 5 -10 10 0 6 5 10 10 10 6 0 10 -4 10 -10z
m160 -100 c0 -5 -4 -10 -9 -10 -6 0 -13 5 -16 10 -3 6 1 10 9 10 9 0 16 -4 16
-10z m80 -60 c0 -5 -2 -10 -4 -10 -3 0 -8 5 -11 10 -3 6 -1 10 4 10 6 0 11 -4
11 -10z m240 -140 c0 -5 -7 -7 -15 -4 -8 4 -15 8 -15 10 0 2 7 4 15 4 8 0 15
-4 15 -10z m80 -46 c0 -11 -5 -14 -16 -10 -9 3 -20 6 -25 6 -5 0 -9 5 -9 10 0
6 11 10 25 10 16 0 25 -6 25 -16z m80 -54 c0 -5 -4 -10 -9 -10 -6 0 -13 5 -16
10 -3 6 1 10 9 10 9 0 16 -4 16 -10z m160 -100 c0 -5 -4 -10 -9 -10 -6 0 -13
5 -16 10 -3 6 1 10 9 10 9 0 16 -4 16 -10z m80 -60 c0 -5 -4 -10 -10 -10 -5 0
-10 5 -10 10 0 6 5 10 10 10 6 0 10 -4 10 -10z m160 -100 c0 -5 -4 -10 -9 -10
-6 0 -13 5 -16 10 -3 6 1 10 9 10 9 0 16 -4 16 -10z m400 -240 c0 -5 -6 -10
-14 -10 -8 0 -18 5 -21 10 -3 6 3 10 14 10 12 0 21 -4 21 -10z m80 -60 c0 -5
-4 -10 -10 -10 -5 0 -10 5 -10 10 0 6 5 10 10 10 6 0 10 -4 10 -10z m160 -100
c0 -5 -4 -10 -9 -10 -6 0 -13 5 -16 10 -3 6 1 10 9 10 9 0 16 -4 16 -10z m517
-66 c-3 -3 -12 -4 -19 -1 -8 3 -5 6 6 6 11 1 17 -2 13 -5z m-200 -130 c-3 -3
-12 -4 -19 -1 -8 3 -5 6 6 6 11 1 17 -2 13 -5z m83 -44 c0 -5 -6 -10 -14 -10
-8 0 -18 5 -21 10 -3 6 3 10 14 10 12 0 21 -4 21 -10z m80 -60 c0 -5 -4 -10
-10 -10 -5 0 -10 5 -10 10 0 6 5 10 10 10 6 0 10 -4 10 -10z m160 -100 c0 -5
-4 -10 -9 -10 -6 0 -13 5 -16 10 -3 6 1 10 9 10 9 0 16 -4 16 -10z m575 -100
c3 -5 1 -10 -4 -10 -6 0 -11 5 -11 10 0 6 2 10 4 10 3 0 8 -4 11 -10z m-258
-96 c-3 -3 -12 -4 -19 -1 -8 3 -5 6 6 6 11 1 17 -2 13 -5z m83 -44 c0 -5 -6
-10 -14 -10 -8 0 -18 5 -21 10 -3 6 3 10 14 10 12 0 21 -4 21 -10z m80 -60 c0
-5 -4 -10 -10 -10 -5 0 -10 5 -10 10 0 6 5 10 10 10 6 0 10 -4 10 -10z m160
-100 c0 -5 -4 -10 -9 -10 -6 0 -13 5 -16 10 -3 6 1 10 9 10 9 0 16 -4 16 -10z
m317 -196 c-3 -3 -12 -4 -19 -1 -8 3 -5 6 6 6 11 1 17 -2 13 -5z m83 -44 c0
-5 -9 -10 -20 -10 -11 0 -20 5 -20 10 0 6 9 10 20 10 11 0 20 -4 20 -10z m80
-60 c0 -5 -4 -10 -10 -10 -5 0 -10 5 -10 10 0 6 5 10 10 10 6 0 10 -4 10 -10z
m160 -100 c0 -5 -4 -10 -9 -10 -6 0 -13 5 -16 10 -3 6 1 10 9 10 9 0 16 -4 16
-10z m80 -60 c0 -5 -2 -10 -4 -10 -3 0 -8 5 -11 10 -3 6 -1 10 4 10 6 0 11 -4
11 -10z m240 -140 c0 -5 -7 -7 -15 -4 -8 4 -15 8 -15 10 0 2 7 4 15 4 8 0 15
-4 15 -10z m80 -46 c0 -11 -5 -14 -16 -10 -9 3 -20 6 -25 6 -5 0 -9 5 -9 10 0
6 11 10 25 10 16 0 25 -6 25 -16z m80 -54 c0 -5 -4 -10 -9 -10 -6 0 -13 5 -16
10 -3 6 1 10 9 10 9 0 16 -4 16 -10z m160 -100 c0 -5 -4 -10 -9 -10 -6 0 -13
5 -16 10 -3 6 1 10 9 10 9 0 16 -4 16 -10z m80 -60 c0 -5 -4 -10 -10 -10 -5 0
-10 5 -10 10 0 6 5 10 10 10 6 0 10 -4 10 -10z m160 -100 c0 -5 -4 -10 -9 -10
-6 0 -13 5 -16 10 -3 6 1 10 9 10 9 0 16 -4 16 -10z m400 -240 c0 -5 -6 -10
-14 -10 -8 0 -18 5 -21 10 -3 6 3 10 14 10 12 0 21 -4 21 -10z m80 -60 c0 -5
-4 -10 -10 -10 -5 0 -10 5 -10 10 0 6 5 10 10 10 6 0 10 -4 10 -10z m160 -100
c0 -5 -4 -10 -9 -10 -6 0 -13 5 -16 10 -3 6 1 10 9 10 9 0 16 -4 16 -10z m517
-66 c-3 -3 -12 -4 -19 -1 -8 3 -5 6 6 6 11 1 17 -2 13 -5z m-200 -130 c-3 -3
-12 -4 -19 -1 -8 3 -5 6 6 6 11 1 17 -2 13 -5z m83 -44 c0 -5 -6 -10 -14 -10
-8 0 -18 5 -21 10 -3 6 3 10 14 10 12 0 21 -4 21 -10z m80 -60 c0 -5 -4 -10
-10 -10 -5 0 -10 5 -10 10 0 6 5 10 10 10 6 0 10 -4 10 -10z"/>
<path d="M23280 6929 c0 -5 7 -12 15 -15 8 -4 15 -10 15 -15 0 -5 -7 -9 -15
-9 -23 0 -18 -27 6 -33 11 -3 23 -15 26 -26 8 -30 31 -26 35 7 l3 27 26 -27
c15 -16 32 -28 39 -28 7 0 -6 18 -30 40 -24 22 -49 40 -56 40 -7 0 -18 8 -23
19 -12 21 -41 36 -41 20z"/>
<path d="M23550 6740 c0 -5 -7 -10 -15 -10 -23 0 -18 -27 6 -33 11 -3 23 -15
26 -26 3 -12 12 -21 19 -21 10 0 14 14 14 50 0 47 -2 50 -25 50 -14 0 -25 -4
-25 -10z"/>
<path d="M23658 6683 c7 -3 16 -2 19 1 4 3 -2 6 -13 5 -11 0 -14 -3 -6 -6z"/>
<path d="M23805 6580 c3 -5 13 -10 21 -10 8 0 14 5 14 10 0 6 -9 10 -21 10
-11 0 -17 -4 -14 -10z"/>
<path d="M23920 6529 c0 -5 7 -12 15 -15 8 -4 15 -10 15 -15 0 -5 -7 -9 -15
-9 -23 0 -18 -27 6 -33 11 -3 23 -15 26 -26 8 -30 31 -26 35 7 l3 27 26 -27
c15 -16 32 -28 39 -28 7 0 -6 18 -30 40 -24 22 -49 40 -56 40 -7 0 -18 8 -23
19 -12 21 -41 36 -41 20z"/>
<path d="M24173 6353 c-22 -8 -15 -50 8 -56 11 -3 23 -15 26 -26 10 -38 33
-24 33 19 0 29 -4 40 -15 40 -9 0 -18 7 -21 15 -6 16 -11 17 -31 8z"/>
<path d="M24298 6283 c7 -3 16 -2 19 1 4 3 -2 6 -13 5 -11 0 -14 -3 -6 -6z"/>
<path d="M24458 6183 c7 -3 16 -2 19 1 4 3 -2 6 -13 5 -11 0 -14 -3 -6 -6z"/>
<path d="M24590 6100 c0 -5 -7 -10 -15 -10 -8 0 -15 -9 -15 -20 0 -16 7 -20
30 -20 23 0 30 -4 30 -20 0 -11 5 -20 10 -20 6 0 10 9 10 20 0 11 -4 20 -10
20 -5 0 -10 9 -10 20 0 11 5 20 10 20 6 0 10 5 10 10 0 6 -11 10 -25 10 -14 0
-25 -4 -25 -10z"/>
<path d="M24720 6080 c0 -5 7 -10 15 -10 8 0 15 5 15 10 0 6 -7 10 -15 10 -8
0 -15 -4 -15 -10z"/>
<path d="M24680 6030 c6 -11 17 -20 25 -20 8 0 15 9 15 20 0 15 -7 20 -25 20
-23 0 -24 -2 -15 -20z"/>
<path d="M24830 5940 c0 -5 -7 -10 -15 -10 -23 0 -18 -27 6 -33 11 -3 23 -15
26 -26 3 -12 12 -21 19 -21 10 0 14 14 14 50 0 47 -2 50 -25 50 -14 0 -25 -4
-25 -10z"/>
<path d="M25010 5896 c0 -2 7 -9 15 -16 12 -10 15 -10 15 4 0 9 -7 16 -15 16
-8 0 -15 -2 -15 -4z"/>
<path d="M24938 5883 c7 -3 16 -2 19 1 4 3 -2 6 -13 5 -11 0 -14 -3 -6 -6z"/>
<path d="M25098 5783 c7 -3 16 -2 19 1 4 3 -2 6 -13 5 -11 0 -14 -3 -6 -6z"/>
<path d="M25200 5670 c0 -13 7 -20 20 -20 13 0 20 -7 20 -20 0 -13 7 -20 20
-20 13 0 20 7 20 20 0 13 -7 20 -20 20 -13 0 -20 7 -20 20 0 13 -7 20 -20 20
-13 0 -20 -7 -20 -20z"/>
<path d="M25325 5620 c3 -5 12 -7 20 -3 21 7 19 13 -6 13 -11 0 -18 -4 -14
-10z"/>
<path d="M25437 5609 c7 -7 15 -10 18 -7 3 3 -2 9 -12 12 -14 6 -15 5 -6 -5z"/>
<path d="M25500 5580 c0 -5 5 -10 10 -10 6 0 10 5 10 10 0 6 -4 10 -10 10 -5
0 -10 -4 -10 -10z"/>
<path d="M25470 5541 c0 -6 -7 -11 -15 -11 -23 0 -18 -27 6 -33 11 -3 23 -15
26 -26 10 -38 33 -24 33 19 0 22 0 43 0 48 0 4 -11 8 -25 10 -14 2 -25 -1 -25
-7z"/>
<path d="M25650 5496 c0 -2 7 -9 15 -16 12 -10 15 -10 15 4 0 9 -7 16 -15 16
-8 0 -15 -2 -15 -4z"/>
<path d="M25578 5483 c7 -3 16 -2 19 1 4 3 -2 6 -13 5 -11 0 -14 -3 -6 -6z"/>
<path d="M25738 5383 c7 -3 16 -2 19 1 4 3 -2 6 -13 5 -11 0 -14 -3 -6 -6z"/>
<path d="M25965 5220 c3 -5 12 -7 20 -3 21 7 19 13 -6 13 -11 0 -18 -4 -14
-10z"/>
<path d="M26110 5140 c0 -5 -7 -10 -15 -10 -23 0 -18 -27 6 -33 11 -3 23 -15
26 -26 3 -12 12 -21 19 -21 10 0 14 14 14 50 0 47 -2 50 -25 50 -14 0 -25 -4
-25 -10z"/>
<path d="M26228 5123 c6 -2 18 -2 25 0 6 3 1 5 -13 5 -14 0 -19 -2 -12 -5z"/>
<path d="M26200 5070 c6 -11 17 -20 25 -20 8 0 15 9 15 20 0 15 -7 20 -25 20
-23 0 -24 -2 -15 -20z"/>
<path d="M26378 4983 c7 -3 16 -2 19 1 4 3 -2 6 -13 5 -11 0 -14 -3 -6 -6z"/>
<path d="M26400 4905 c0 -8 5 -15 10 -15 6 0 10 7 10 15 0 8 -4 15 -10 15 -5
0 -10 -7 -10 -15z"/>
<path d="M26720 4769 c0 -5 7 -12 15 -15 8 -4 15 -10 15 -15 0 -5 -7 -9 -15
-9 -23 0 -18 -27 6 -33 11 -3 23 -15 26 -26 8 -30 31 -26 35 7 l3 27 26 -27
c15 -16 32 -28 39 -28 7 0 -6 18 -30 40 -24 22 -49 40 -56 40 -7 0 -18 8 -23
19 -12 21 -41 36 -41 20z"/>
<path d="M26990 4580 c0 -5 -7 -10 -15 -10 -23 0 -18 -27 6 -33 11 -3 23 -15
26 -26 3 -12 12 -21 19 -21 10 0 14 14 14 50 0 47 -2 50 -25 50 -14 0 -25 -4
-25 -10z"/>
<path d="M27098 4523 c7 -3 16 -2 19 1 4 3 -2 6 -13 5 -11 0 -14 -3 -6 -6z"/>
<path d="M27245 4420 c3 -5 13 -10 21 -10 8 0 14 5 14 10 0 6 -9 10 -21 10
-11 0 -17 -4 -14 -10z"/>
<path d="M27360 4369 c0 -5 7 -12 15 -15 8 -4 15 -10 15 -15 0 -5 -7 -9 -15
-9 -23 0 -18 -27 6 -33 11 -3 23 -15 26 -26 8 -30 31 -26 35 7 l3 27 26 -27
c15 -16 32 -28 39 -28 7 0 -6 18 -30 40 -24 22 -49 40 -56 40 -7 0 -18 8 -23
19 -12 21 -41 36 -41 20z"/>
<path d="M27613 4193 c-22 -8 -15 -50 8 -56 11 -3 23 -15 26 -26 10 -38 33
-24 33 19 0 29 -4 40 -15 40 -9 0 -18 7 -21 15 -6 16 -11 17 -31 8z"/>
<path d="M27738 4123 c7 -3 16 -2 19 1 4 3 -2 6 -13 5 -11 0 -14 -3 -6 -6z"/>
<path d="M27898 4023 c7 -3 16 -2 19 1 4 3 -2 6 -13 5 -11 0 -14 -3 -6 -6z"/>
<path d="M28030 3940 c0 -5 -7 -10 -15 -10 -8 0 -15 -9 -15 -20 0 -16 7 -20
30 -20 23 0 30 -4 30 -20 0 -11 5 -20 10 -20 6 0 10 9 10 20 0 11 -4 20 -10
20 -5 0 -10 9 -10 20 0 11 5 20 10 20 6 0 10 5 10 10 0 6 -11 10 -25 10 -14 0
-25 -4 -25 -10z"/>
<path d="M28160 3920 c0 -5 7 -10 15 -10 8 0 15 5 15 10 0 6 -7 10 -15 10 -8
0 -15 -4 -15 -10z"/>
<path d="M28120 3870 c6 -11 17 -20 25 -20 8 0 15 9 15 20 0 15 -7 20 -25 20
-23 0 -24 -2 -15 -20z"/>
<path d="M28270 3780 c0 -5 -7 -10 -15 -10 -23 0 -18 -27 6 -33 11 -3 23 -15
26 -26 3 -12 12 -21 19 -21 10 0 14 14 14 50 0 47 -2 50 -25 50 -14 0 -25 -4
-25 -10z"/>
<path d="M28450 3736 c0 -2 7 -9 15 -16 12 -10 15 -10 15 4 0 9 -7 16 -15 16
-8 0 -15 -2 -15 -4z"/>
<path d="M28378 3723 c7 -3 16 -2 19 1 4 3 -2 6 -13 5 -11 0 -14 -3 -6 -6z"/>
<path d="M28538 3623 c7 -3 16 -2 19 1 4 3 -2 6 -13 5 -11 0 -14 -3 -6 -6z"/>
<path d="M28640 3510 c0 -13 7 -20 20 -20 13 0 20 -7 20 -20 0 -13 7 -20 20
-20 13 0 20 7 20 20 0 13 -7 20 -20 20 -13 0 -20 7 -20 20 0 13 -7 20 -20 20
-13 0 -20 -7 -20 -20z"/>
<path d="M28765 3460 c3 -5 12 -7 20 -3 21 7 19 13 -6 13 -11 0 -18 -4 -14
-10z"/>
<path d="M28877 3449 c7 -7 15 -10 18 -7 3 3 -2 9 -12 12 -14 6 -15 5 -6 -5z"/>
<path d="M28940 3420 c0 -5 5 -10 10 -10 6 0 10 5 10 10 0 6 -4 10 -10 10 -5
0 -10 -4 -10 -10z"/>
<path d="M28910 3381 c0 -6 -7 -11 -15 -11 -23 0 -18 -27 6 -33 11 -3 23 -15
26 -26 10 -38 33 -24 33 19 0 22 0 43 0 48 0 4 -11 8 -25 10 -14 2 -25 -1 -25
-7z"/>
<path d="M29090 3336 c0 -2 7 -9 15 -16 12 -10 15 -10 15 4 0 9 -7 16 -15 16
-8 0 -15 -2 -15 -4z"/>
<path d="M29018 3323 c7 -3 16 -2 19 1 4 3 -2 6 -13 5 -11 0 -14 -3 -6 -6z"/>
<path d="M29178 3223 c7 -3 16 -2 19 1 4 3 -2 6 -13 5 -11 0 -14 -3 -6 -6z"/>
<path d="M29405 3060 c3 -5 12 -7 20 -3 21 7 19 13 -6 13 -11 0 -18 -4 -14
-10z"/>
<path d="M29550 2980 c0 -5 -7 -10 -15 -10 -23 0 -18 -27 6 -33 11 -3 23 -15
26 -26 3 -12 12 -21 19 -21 10 0 14 14 14 50 0 47 -2 50 -25 50 -14 0 -25 -4
-25 -10z"/>
<path d="M29668 2963 c6 -2 18 -2 25 0 6 3 1 5 -13 5 -14 0 -19 -2 -12 -5z"/>
<path d="M29640 2910 c6 -11 17 -20 25 -20 8 0 15 9 15 20 0 15 -7 20 -25 20
-23 0 -24 -2 -15 -20z"/>
<path d="M29818 2823 c7 -3 16 -2 19 1 4 3 -2 6 -13 5 -11 0 -14 -3 -6 -6z"/>
<path d="M29840 2745 c0 -8 5 -15 10 -15 6 0 10 7 10 15 0 8 -4 15 -10 15 -5
0 -10 -7 -10 -15z"/>
<path d="M30160 2609 c0 -5 7 -12 15 -15 8 -4 15 -10 15 -15 0 -5 -7 -9 -15
-9 -23 0 -18 -27 6 -33 11 -3 23 -15 26 -26 8 -30 31 -26 35 7 l3 27 26 -27
c15 -16 32 -28 39 -28 7 0 -6 18 -30 40 -24 22 -49 40 -56 40 -7 0 -18 8 -23
19 -12 21 -41 36 -41 20z"/>
</g>
</svg>
