<?xml version="1.0" standalone="no"?>
<!DOCTYPE svg PUBLIC "-//W3C//DTD SVG 20010904//EN"
 "http://www.w3.org/TR/2001/REC-SVG-20010904/DTD/svg10.dtd">
<svg version="1.0" xmlns="http://www.w3.org/2000/svg"
 width="1005.000000pt" height="1005.000000pt" viewBox="0 0 1005.000000 1005.000000"
 preserveAspectRatio="xMidYMid meet">

<g transform="translate(0.000000,1005.000000) scale(0.100000,-0.100000)"
fill="#000000" stroke="none">
<path d="M2940 8760 c-282 -20 -548 -113 -785 -274 -50 -34 -141 -112 -206
-176 -212 -211 -344 -448 -412 -745 -20 -85 -21 -125 -24 -751 l-4 -662 -67
-6 c-282 -27 -487 -114 -675 -286 -65 -60 -77 -90 -37 -90 10 0 36 -18 59 -40
22 -22 50 -40 60 -40 10 0 21 -6 24 -14 3 -7 37 -34 76 -59 39 -26 75 -56 81
-67 6 -11 20 -20 32 -20 11 0 38 -18 60 -40 22 -22 45 -40 50 -40 8 0 81 -52
98 -70 3 -3 22 -14 43 -24 20 -11 37 -24 37 -29 0 -14 32 -36 53 -37 10 0 20
-6 23 -14 3 -8 41 -37 84 -65 43 -28 80 -58 84 -66 3 -8 14 -15 25 -15 11 0
38 -18 60 -40 22 -22 45 -40 51 -40 7 0 26 -12 44 -27 l31 -26 3 32 c2 18 -3
40 -10 49 -7 9 -8 13 -2 9 8 -4 13 307 18 1111 8 1205 7 1177 63 1356 31 101
110 260 171 346 69 98 212 240 310 310 150 106 340 189 527 227 72 15 259 17
1970 20 1969 4 1996 4 2177 -38 435 -101 797 -431 938 -856 62 -186 60 -132
60 -1890 l0 -1603 213 0 c301 0 414 23 608 121 174 89 326 232 423 398 224
384 183 840 -107 1190 -165 200 -458 348 -725 367 l-92 7 0 586 c0 331 -5 625
-10 676 -50 444 -289 835 -664 1087 -221 148 -468 233 -746 258 -133 11 -3822
11 -3990 0z m-2159 -2937 c13 -16 12 -17 -3 -4 -17 13 -22 21 -14 21 2 0 10
-8 17 -17z m450 -330 c13 -16 12 -17 -3 -4 -17 13 -22 21 -14 21 2 0 10 -8 17
-17z m260 -190 c13 -16 12 -17 -3 -4 -17 13 -22 21 -14 21 2 0 10 -8 17 -17z
m280 -200 c13 -16 12 -17 -3 -4 -10 7 -18 15 -18 17 0 8 8 3 21 -13z"/>
<path d="M3728 8233 l-58 -4 0 -1667 c1 -1439 3 -1670 15 -1686 13 -17 15 97
17 915 l3 934 29 59 c37 76 101 140 174 174 49 23 70 27 148 27 115 0 76 20
864 -436 338 -195 751 -434 918 -530 330 -189 380 -227 429 -326 24 -50 28
-70 28 -143 0 -72 -4 -94 -28 -146 -50 -108 -76 -126 -682 -474 -1390 -800
-1357 -781 -1353 -789 2 -3 24 -46 49 -96 99 -194 186 -450 228 -670 20 -102
36 -249 49 -435 l7 -105 1618 -3 1617 -2 -3 2187 -3 2188 -21 90 c-60 251
-160 434 -333 605 -131 130 -276 219 -456 280 -179 61 -137 60 -1739 58 -803
-1 -1486 -3 -1517 -5z m-41 -2895 c-1 -249 -2 -48 -2 447 0 495 1 699 2 453 2
-245 2 -650 0 -900z"/>
<path d="M3998 4103 c6 -2 18 -2 25 0 6 3 1 5 -13 5 -14 0 -19 -2 -12 -5z"/>
<path d="M4098 4103 c6 -2 18 -2 25 0 6 3 1 5 -13 5 -14 0 -19 -2 -12 -5z"/>
<path d="M3503 1733 c-18 -2 -33 -10 -33 -17 0 -26 102 -117 116 -103 6 5 12
1 73 -53 34 -30 78 -42 66 -17 -4 6 1 3 9 -7 9 -11 16 -23 16 -27 0 -10 90
-62 97 -56 2 3 14 -4 25 -15 11 -11 26 -17 33 -14 9 3 12 0 9 -8 -6 -16 32
-46 58 -46 10 0 18 -4 18 -8 0 -5 18 -18 40 -31 22 -12 40 -26 40 -32 0 -5 8
-9 18 -9 18 0 19 14 21 225 l2 225 -288 -2 c-158 0 -303 -3 -320 -5z"/>
<path d="M4497 1303 c-296 -3 -378 -6 -374 -16 2 -6 11 -11 20 -11 9 1 13 -4
10 -12 -6 -16 56 -56 75 -49 7 3 10 1 7 -4 -3 -5 3 -12 13 -15 10 -4 34 -20
53 -37 23 -20 41 -29 57 -26 12 2 21 2 18 -1 -3 -2 1 -11 9 -18 11 -12 288
-14 1714 -14 l1701 0 0 105 0 105 -1462 -2 c-805 -2 -1633 -4 -1841 -5z"/>
</g>
</svg>
