<?xml version="1.0" standalone="no"?>
<!DOCTYPE svg PUBLIC "-//W3C//DTD SVG 20010904//EN"
 "http://www.w3.org/TR/2001/REC-SVG-20010904/DTD/svg10.dtd">
<svg version="1.0" xmlns="http://www.w3.org/2000/svg"
 width="736.000000pt" height="368.000000pt" viewBox="0 0 736.000000 368.000000"
 preserveAspectRatio="xMidYMid meet">

<g transform="translate(0.000000,368.000000) scale(0.100000,-0.100000)"
fill="#000000" stroke="none">
<path d="M725 3540 c-3 -5 5 -16 17 -23 13 -8 50 -31 83 -52 199 -124 426
-359 542 -560 l36 -64 42 68 c107 174 241 326 394 449 84 67 126 96 229 159
12 8 20 18 16 24 -7 13 -117 -48 -214 -119 -160 -118 -281 -243 -407 -424 -30
-43 -58 -78 -62 -78 -4 0 -12 10 -18 23 -6 12 -45 69 -88 126 -130 175 -293
323 -487 440 -74 45 -74 45 -83 31z"/>
<path d="M656 3453 c-13 -13 -4 -22 52 -53 230 -130 508 -407 653 -651 37 -61
45 -69 54 -55 52 88 132 204 182 266 123 152 320 325 488 429 85 53 81 49 69
61 -13 13 -140 -61 -259 -150 -160 -120 -314 -284 -434 -464 -29 -43 -57 -74
-61 -70 -4 5 -37 50 -71 101 -121 174 -243 302 -409 429 -107 83 -252 169
-264 157z"/>
<path d="M482 3407 l-42 -42 483 -483 482 -482 483 483 482 482 -45 45 -45 45
-438 -438 -437 -437 -435 435 c-239 239 -437 435 -440 435 -3 0 -25 -19 -48
-43z"/>
<path d="M2580 2980 c-36 -4 -53 -7 -38 -8 59 -4 59 -4 56 -345 l-3 -312 -30
-6 c-16 -4 17 -7 75 -7 58 0 94 3 80 7 l-25 7 -2 159 c0 88 -2 240 -2 338 l-1
177 -22 -2 c-13 -1 -52 -4 -88 -8z"/>
<path d="M2352 2954 c-9 -91 -62 -178 -131 -214 l-36 -19 43 -1 42 0 0 -169
c0 -93 4 -181 10 -196 23 -59 157 -74 192 -21 16 24 7 24 -17 1 -29 -30 -49
-31 -75 -5 -19 19 -20 33 -20 205 l0 185 60 0 c47 0 60 3 60 15 0 12 -13 15
-60 15 l-59 0 -4 113 c-1 61 -4 103 -5 91z"/>
<path d="M3160 2744 c-50 -22 -79 -52 -106 -109 -26 -54 -31 -133 -14 -196 13
-47 84 -116 135 -132 l40 -12 -72 -3 -73 -3 0 -110 c0 -100 8 -141 32 -159 12
-9 60 -124 79 -190 25 -84 35 -271 20 -374 -14 -97 -47 -192 -95 -271 -36 -59
-36 -61 -36 -172 0 -62 3 -113 8 -113 4 0 73 -1 154 -3 l147 -2 3 435 c4 385
6 441 22 490 36 111 83 164 171 195 26 8 56 35 99 86 33 40 81 88 106 106 25
18 50 37 55 41 6 4 23 13 39 20 40 18 25 29 -65 48 -145 31 -250 3 -361 -96
-31 -27 -59 -50 -62 -50 -3 0 -6 27 -6 60 l0 60 -71 0 c-44 0 -68 4 -64 10 3
6 -4 10 -17 10 -27 0 -61 26 -77 57 -6 11 -14 53 -17 92 l-7 71 138 0 138 0
-6 55 c-7 67 -31 112 -77 142 -39 27 -59 30 -38 6 21 -24 38 -88 38 -145 l0
-48 -96 0 -97 0 6 65 c6 64 26 117 49 131 7 4 28 11 48 15 l35 7 -35 0 c-19 1
-51 -6 -70 -14z"/>
<path d="M2830 2744 c37 -11 45 -44 48 -217 4 -192 1 -214 -31 -220 -12 -2 23
-4 78 -5 55 0 89 3 75 7 l-25 7 -5 179 c-4 136 -9 185 -20 203 -19 28 -69 52
-107 51 -15 -1 -21 -3 -13 -5z"/>
<path d="M2744 2718 l-19 -23 23 19 c21 18 27 26 19 26 -2 0 -12 -10 -23 -22z"/>
<path d="M2715 2679 c-4 -6 -5 -12 -2 -15 2 -3 7 2 10 11 7 17 1 20 -8 4z"/>
<path d="M1706 2551 l-89 -89 32 -17 c45 -23 126 -31 137 -14 6 10 14 209 9
209 0 0 -40 -40 -89 -89z m48 1 c2 -4 -4 -8 -14 -8 -10 0 -16 4 -14 8 3 4 9 8
14 8 5 0 11 -4 14 -8z"/>
<path d="M2483 2450 c0 -47 2 -66 4 -42 2 23 2 61 0 85 -2 23 -4 4 -4 -43z"/>
<path d="M1592 1750 c2 -297 0 -540 -4 -540 -5 0 -7 -70 -6 -155 l2 -155 105
0 106 0 -2 682 c-2 376 -3 689 -3 696 0 9 -27 12 -100 12 l-100 0 2 -540z"/>
</g>
</svg>
