<?xml version="1.0" standalone="no"?>
<!DOCTYPE svg PUBLIC "-//W3C//DTD SVG 20010904//EN"
 "http://www.w3.org/TR/2001/REC-SVG-20010904/DTD/svg10.dtd">
<svg version="1.0" xmlns="http://www.w3.org/2000/svg"
 width="26872.000000pt" height="6305.000000pt" viewBox="0 0 26872.000000 6305.000000"
 preserveAspectRatio="xMidYMid meet">

<g transform="translate(0.000000,6305.000000) scale(0.100000,-0.100000)"
fill="#000000" stroke="none">
<path d="M19510 61149 c-3032 -127 -5850 -1358 -7969 -3480 -1930 -1934 -3095
-4437 -3315 -7129 -35 -417 -36 -597 -36 -4986 l0 -4381 -237 -6 c-1724 -46
-3371 -617 -4737 -1641 -364 -273 -611 -491 -962 -849 l-237 -241 24 -18 c13
-10 1950 -1405 4304 -3101 l4280 -3083 6 4511 c3 2480 7 6326 8 8545 1 2518 5
4099 11 4205 101 1734 639 3351 1595 4795 609 920 1382 1742 2275 2419 1305
990 2835 1649 4450 1916 353 58 684 96 1115 126 249 18 3953 20 16920 10
12593 -10 11718 -6 12185 -56 2984 -321 5676 -1950 7315 -4424 979 -1480 1519
-3149 1595 -4936 6 -147 10 -4535 10 -12193 l0 -11963 1463 4 c1568 4 1551 3
2002 58 2535 307 4777 1757 6067 3924 548 920 903 1951 1037 3010 47 372 55
511 56 985 0 465 -6 582 -46 930 -264 2272 -1532 4338 -3469 5652 -1296 879
-2845 1377 -4402 1415 l-258 6 -3 4486 c-2 3383 -6 4523 -15 4636 -59 729
-115 1135 -233 1690 -264 1240 -755 2468 -1415 3542 -961 1563 -2242 2850
-3814 3833 -583 365 -1356 750 -2005 998 -1244 477 -2506 736 -3860 792 -288
12 -29420 11 -29705 -1z"/>
<path d="M24740 44333 l0 -12828 150 -155 149 -155 3 6955 c3 6507 5 6962 21
7058 73 443 208 795 434 1136 264 397 604 697 1034 911 636 316 1389 352 2134
103 203 -68 311 -123 895 -460 311 -179 1416 -815 2455 -1413 1935 -1114 4043
-2327 8525 -4907 1400 -806 2637 -1518 2750 -1583 349 -199 535 -339 770 -574
433 -435 687 -925 777 -1501 25 -162 25 -588 0 -745 -64 -397 -187 -730 -388
-1054 -216 -346 -516 -651 -859 -873 -73 -47 -1819 -1054 -6565 -3783 -533
-307 -2000 -1151 -3260 -1875 -1259 -725 -2834 -1631 -3500 -2013 -665 -383
-1215 -700 -1222 -704 -9 -6 12 -52 73 -163 292 -530 612 -1187 869 -1785 920
-2141 1434 -4313 1565 -6615 26 -456 39 -1256 24 -1468 l-7 -91 -141 -4 c-78
-1 5494 -4 12382 -5 l12522 -2 -3 16438 c-3 15361 -4 16449 -20 16617 -39 417
-92 786 -162 1125 -655 3178 -2989 5786 -6080 6793 -779 254 -1552 395 -2394
437 -135 7 -4035 10 -11567 10 l-11364 0 0 -12827z"/>
<path d="M76480 39020 l0 -10790 1820 0 1820 0 2 8429 3 8428 3750 -7483 3749
-7484 1019 2 1019 3 3762 7477 c2069 4112 3765 7480 3769 7484 4 4 7 -3787 7
-8424 l0 -8432 1820 0 1820 0 0 10790 0 10790 -2826 -2 -2826 -3 -3254 -6770
c-1789 -3723 -3257 -6769 -3261 -6769 -5 1 -1473 3048 -3263 6773 l-3255 6771
-2837 0 -2838 0 0 -10790z"/>
<path d="M103319 49748 c21 -35 1828 -2974 4015 -6532 l3976 -6469 0 -4259 0
-4258 1845 0 1845 0 0 4259 0 4259 3951 6429 c2173 3535 3980 6474 4015 6531
l63 102 -1988 0 -1987 0 -2927 -4872 c-1610 -2680 -2937 -4890 -2950 -4911
l-23 -38 -2950 4910 -2949 4911 -1988 0 -1987 0 39 -62z"/>
<path d="M128290 39020 l0 -10790 7005 0 7005 0 0 2145 0 2145 -4600 0 -4600
0 0 8645 0 8645 -2405 0 -2405 0 0 -10790z"/>
<path d="M145520 39020 l0 -10790 2405 0 2405 0 0 10790 0 10790 -2405 0
-2405 0 0 -10790z"/>
<path d="M155340 39020 l0 -10790 4828 0 c4811 0 5190 2 5707 35 2369 150
4082 799 5113 1938 906 999 1407 2101 1548 3407 22 200 30 808 15 1038 -71
1047 -386 1945 -945 2697 -276 370 -663 760 -1031 1037 -515 388 -1133 698
-1792 899 -181 54 -544 149 -574 149 -11 0 -19 3 -19 8 0 4 105 54 233 111
577 258 674 315 1107 639 317 239 449 349 620 521 589 592 960 1348 1120 2283
107 627 118 1343 30 1944 -151 1032 -583 1967 -1310 2837 -364 436 -823 783
-1450 1097 -1002 502 -2232 805 -3670 905 -493 34 -700 35 -5112 35 l-4418 0
0 -10790z m7985 6701 c455 -31 691 -55 965 -97 406 -62 733 -147 1025 -263
614 -246 944 -723 1052 -1521 26 -191 26 -728 0 -910 -52 -365 -149 -647 -308
-890 -83 -126 -270 -314 -398 -399 -391 -259 -1104 -442 -2033 -520 -471 -40
-682 -45 -2103 -45 l-1370 -1 -3 2333 -2 2333 1507 -4 c953 -3 1567 -9 1668
-16z m605 -8460 c713 -43 1124 -87 1550 -167 499 -93 939 -234 1202 -385 418
-239 690 -607 823 -1112 144 -549 115 -1308 -71 -1803 -166 -445 -446 -761
-863 -973 -506 -257 -1229 -419 -2166 -486 -396 -28 -1018 -36 -2645 -33
l-1605 3 -3 2488 -2 2488 1797 -4 c1156 -3 1864 -8 1983 -16z"/>
<path d="M176300 39020 l0 -10790 2405 0 2405 0 0 3445 0 3445 1669 0 1668 0
2394 -3445 2394 -3445 2964 0 c2369 0 2961 3 2954 13 -43 54 -5444 7690 -5445
7698 -2 6 67 39 152 73 237 95 357 149 580 261 1658 828 2701 2206 3134 4137
146 651 213 1271 223 2073 11 845 -44 1521 -178 2190 -333 1665 -1099 2889
-2309 3690 -1144 757 -2778 1215 -4930 1379 -185 15 -292 21 -755 48 -144 8
-1485 12 -4762 15 l-4563 4 0 -10791z m8940 6650 c1186 -44 2036 -226 2592
-553 531 -313 854 -833 992 -1602 101 -560 95 -1310 -15 -1875 -97 -498 -261
-889 -517 -1233 -89 -121 -305 -340 -414 -420 -503 -373 -1266 -593 -2328
-672 -395 -29 -820 -35 -2622 -35 l-1818 0 0 3200 0 3200 1933 0 c1090 0 2047
-4 2197 -10z"/>
<path d="M204941 49788 c-5 -13 -2100 -4863 -4656 -10778 -2556 -5915 -4649
-10761 -4652 -10768 -4 -10 508 -12 2557 -10 l2562 3 1002 2327 1001 2328
4528 -3 4529 -2 1001 -2327 1002 -2328 2562 0 2561 0 -141 328 c-78 180 -2176
5035 -4662 10790 l-4520 10462 -2333 0 -2332 0 -9 -22z m3699 -9523 c733
-1710 1335 -3118 1338 -3127 4 -17 -129 -18 -2698 -18 -1642 0 -2700 4 -2698
9 33 91 2715 6258 2719 6253 4 -4 607 -1406 1339 -3117z"/>
<path d="M221140 39020 l0 -10790 2405 0 2405 0 0 3445 0 3445 1669 0 1668 0
2394 -3445 2394 -3445 2964 0 c2369 0 2961 3 2954 13 -43 54 -5444 7689 -5445
7698 -2 6 67 39 152 73 471 189 867 394 1245 644 1523 1009 2407 2610 2635
4772 70 665 79 1521 24 2185 -164 1975 -831 3440 -2014 4424 -1144 952 -2927
1518 -5370 1705 -185 15 -292 21 -755 48 -144 8 -1485 12 -4762 15 l-4563 4 0
-10791z m8940 6650 c1186 -44 2036 -226 2592 -553 531 -313 854 -833 992
-1602 101 -560 95 -1310 -15 -1875 -98 -504 -269 -907 -532 -1255 -79 -104
-301 -326 -399 -398 -503 -373 -1266 -593 -2328 -672 -395 -29 -820 -35 -2622
-35 l-1818 0 0 3200 0 3200 1933 0 c1090 0 2047 -4 2197 -10z"/>
<path d="M239730 49806 c0 -3 1681 -2942 3735 -6533 l3735 -6528 0 -4257 0
-4258 2405 0 2405 0 0 4263 0 4262 2706 4730 c1488 2602 3169 5539 3735 6528
l1028 1797 -2608 0 -2607 0 -2329 -4010 c-1281 -2205 -2332 -4010 -2335 -4010
-3 1 -1052 1804 -2331 4008 l-2326 4007 -2606 3 c-1434 1 -2607 0 -2607 -2z"/>
<path d="M131710 20553 c-19 -1 -84 -8 -145 -13 -403 -39 -815 -161 -1120
-332 -531 -299 -907 -767 -1115 -1387 -173 -519 -237 -1201 -174 -1871 101
-1085 569 -1836 1354 -2173 390 -168 804 -236 1360 -224 436 9 771 58 1294
188 189 48 538 147 548 157 4 4 -1 297 -12 652 -16 541 -17 711 -9 1053 6 225
8 411 5 414 -3 3 -153 -7 -333 -21 -180 -14 -333 -26 -339 -26 -8 0 -10 -136
-7 -492 4 -468 -7 -1071 -20 -1084 -3 -3 -65 -24 -139 -45 -463 -138 -797
-188 -1158 -175 -1107 38 -1674 621 -1784 1831 -50 543 -17 1075 94 1515 153
609 489 1044 969 1256 453 199 1095 228 1632 74 220 -63 529 -202 783 -353
104 -62 110 -64 149 -55 23 5 43 11 45 13 2 2 35 151 73 332 38 180 71 336 73
346 4 15 -16 28 -102 69 -535 250 -1048 360 -1651 356 -130 0 -252 -3 -271 -5z"/>
<path d="M217897 20545 c-815 -103 -1409 -589 -1574 -1285 -31 -131 -42 -387
-24 -534 25 -197 87 -364 193 -523 74 -111 240 -291 353 -383 162 -133 437
-291 930 -536 519 -257 701 -361 893 -511 190 -148 288 -332 307 -575 9 -109
-8 -229 -49 -351 -119 -350 -450 -611 -862 -681 -283 -48 -569 -20 -888 85
-299 98 -566 252 -778 448 l-66 61 -48 -21 c-27 -11 -50 -21 -51 -22 -1 -2
-23 -171 -48 -377 -43 -357 -45 -375 -28 -388 32 -24 255 -128 377 -177 219
-86 512 -161 791 -202 173 -25 614 -25 775 0 824 131 1414 639 1572 1354 18
83 22 131 22 308 1 220 -8 291 -56 438 -71 222 -252 471 -481 664 -193 161
-395 279 -962 559 -618 304 -764 393 -936 563 -157 156 -214 255 -246 426 -29
157 4 350 86 513 51 100 96 161 178 245 436 440 1226 430 1897 -26 l109 -74
60 18 c32 10 61 19 62 21 5 5 123 702 120 706 -2 2 -64 26 -140 53 -243 89
-489 152 -740 191 -171 26 -589 34 -748 13z"/>
<path d="M253597 20545 c-815 -103 -1409 -589 -1574 -1285 -31 -131 -42 -387
-24 -534 25 -197 87 -364 193 -523 74 -111 240 -291 353 -383 162 -133 437
-291 930 -536 519 -257 701 -361 893 -511 190 -148 288 -332 307 -575 9 -109
-8 -229 -49 -351 -119 -350 -450 -611 -862 -681 -283 -48 -569 -20 -888 85
-299 98 -566 252 -778 448 l-66 61 -48 -21 c-27 -11 -50 -21 -51 -22 -1 -2
-23 -171 -48 -377 -43 -357 -45 -375 -28 -388 32 -24 255 -128 377 -177 219
-86 512 -161 791 -202 173 -25 614 -25 775 0 824 131 1414 639 1572 1354 18
83 22 131 22 308 1 220 -8 291 -56 438 -71 222 -252 471 -481 664 -193 161
-395 279 -962 559 -618 304 -764 393 -936 563 -157 156 -214 255 -246 426 -29
157 4 350 86 513 51 100 96 161 178 245 436 440 1226 430 1897 -26 l109 -74
60 18 c32 10 61 19 62 21 5 5 123 702 120 706 -2 2 -64 26 -140 53 -243 89
-489 152 -740 191 -171 26 -589 34 -748 13z"/>
<path d="M114455 20532 c-451 -8 -821 -15 -823 -17 -2 -1 7 -930 20 -2063 l23
-2061 -23 -887 c-13 -487 -22 -888 -20 -889 4 -4 374 -23 718 -37 162 -6 579
-12 925 -12 685 -1 710 0 1010 60 774 155 1357 591 1705 1274 213 421 330 892
371 1494 15 223 6 721 -15 896 -64 508 -198 915 -413 1245 -345 530 -868 856
-1556 969 -310 52 -474 54 -1922 28z m1623 -616 c525 -81 898 -300 1154 -681
274 -407 403 -988 385 -1740 -21 -851 -215 -1433 -612 -1830 -268 -268 -579
-413 -1020 -477 -174 -25 -998 -11 -1470 25 l-150 12 -6 200 c-20 622 -21
1393 -4 2890 9 869 19 1582 21 1584 2 2 89 8 193 13 644 30 1326 32 1509 4z"/>
<path d="M176243 20523 l-813 -3 1 -173 c0 -94 10 -1023 22 -2063 l22 -1891
-22 -819 c-12 -450 -22 -852 -22 -891 l-1 -73 370 0 370 0 0 93 c0 50 -7 391
-15 757 -8 366 -15 792 -15 947 l0 281 518 5 c553 4 627 10 869 67 246 58 538
186 723 317 123 88 336 301 422 423 174 246 285 538 339 893 30 190 32 571 6
751 -60 401 -196 686 -442 925 -249 242 -562 380 -985 435 -154 20 -385 23
-1347 19z m985 -614 c548 -59 891 -318 1006 -760 63 -242 69 -536 16 -811
-107 -556 -475 -923 -1040 -1038 -94 -19 -115 -20 -576 -10 -263 6 -481 14
-484 18 -7 8 20 2575 27 2582 5 5 605 26 826 28 70 1 171 -3 225 -9z"/>
<path d="M194478 20523 l-738 -3 1 -173 c0 -94 10 -1024 22 -2065 l22 -1893
-23 -886 c-13 -487 -22 -887 -20 -888 25 -25 1448 -46 1718 -26 503 38 847
120 1175 281 440 217 703 546 795 999 46 226 50 484 11 713 -96 560 -476 928
-1115 1080 -53 12 -96 25 -96 29 0 3 19 15 42 25 23 10 82 42 130 71 450 266
698 728 698 1303 0 181 -29 376 -76 519 -163 488 -575 792 -1203 886 -123 18
-401 36 -521 32 -47 -1 -417 -3 -822 -4z m1003 -614 c415 -42 651 -174 775
-434 91 -191 116 -487 64 -755 -75 -389 -313 -647 -715 -776 l-110 -35 -485
11 c-267 6 -500 13 -517 16 l-33 5 5 222 c3 122 8 567 11 990 l6 767 448 0
c246 0 494 -5 551 -11z m229 -2594 c455 -74 770 -263 910 -548 59 -119 87
-222 99 -364 30 -340 -74 -637 -292 -839 -191 -177 -487 -299 -852 -351 -109
-15 -190 -18 -505 -17 -327 1 -582 12 -594 25 -9 10 -26 1054 -26 1551 l0 548
198 3 c644 9 968 7 1062 -8z"/>
<path d="M244133 20523 l-813 -3 1 -173 c0 -94 10 -1023 22 -2063 l22 -1891
-22 -819 c-12 -450 -22 -852 -22 -891 l-1 -73 370 0 370 0 0 93 c0 50 -7 391
-15 757 -8 366 -15 819 -15 1008 l0 342 537 -2 537 -3 164 -285 c308 -539 643
-1086 1012 -1654 159 -243 180 -272 228 -303 l54 -35 86 12 c137 18 305 58
453 106 145 47 149 50 149 114 0 18 -66 114 -216 315 -471 630 -932 1301
-1241 1806 l-71 115 83 42 c583 299 967 784 1090 1378 74 356 50 773 -62 1104
-35 103 -133 291 -196 375 -242 324 -614 530 -1079 599 -126 19 -408 37 -528
33 -47 -1 -451 -3 -897 -4z m998 -614 c359 -36 642 -163 809 -362 176 -209
261 -544 230 -915 -33 -407 -161 -685 -422 -918 -121 -108 -325 -220 -514
-283 l-91 -31 -553 15 c-304 8 -554 16 -555 17 -4 7 27 2454 32 2458 5 5 608
26 829 28 73 1 178 -3 235 -9z"/>
<path d="M123451 20348 c0 -95 10 -1024 22 -2064 l22 -1891 -22 -819 c-12
-450 -22 -852 -22 -891 l-1 -73 372 0 371 0 -6 263 c-30 1232 -31 1588 -14
3201 10 880 21 1791 24 2024 l6 422 -376 0 -377 0 1 -172z"/>
<path d="M139041 20348 c0 -95 10 -1024 22 -2064 l22 -1891 -22 -819 c-12
-450 -22 -852 -22 -891 l-1 -73 372 0 371 0 -6 263 c-30 1232 -31 1588 -14
3201 10 880 21 1791 24 2024 l6 422 -376 0 -377 0 1 -172z"/>
<path d="M144647 20483 c-3 -21 -16 -150 -28 -286 -23 -243 -23 -248 -5 -282
19 -34 21 -35 80 -35 34 0 266 11 516 25 292 16 567 25 768 25 l312 0 0 -52
c1 -29 11 -825 24 -1768 l23 -1715 -23 -745 c-12 -410 -25 -811 -28 -892 l-6
-148 371 0 371 0 -8 643 c-11 817 -11 1982 0 3490 l8 1187 312 0 c203 0 468
-9 766 -25 250 -14 478 -25 506 -25 l51 0 27 281 27 281 -27 39 -27 39 -2002
0 -2002 0 -6 -37z"/>
<path d="M154567 20513 c-4 -6 -2087 -5684 -2153 -5865 l-13 -38 367 0 367 0
73 312 c72 307 77 321 249 793 97 264 181 485 187 491 8 8 190 15 605 24 478
10 723 10 1255 0 364 -7 663 -14 664 -16 2 -1 78 -229 168 -506 136 -414 177
-555 234 -797 39 -162 70 -296 70 -298 0 -2 169 -3 376 -3 353 0 375 1 370 18
-3 9 -446 1338 -984 2952 l-979 2935 -426 3 c-234 1 -428 -1 -430 -5z m440
-765 c4 -7 222 -663 484 -1458 l475 -1445 -140 -8 c-182 -10 -1650 -10 -1822
0 l-130 8 530 1445 c292 795 535 1451 539 1458 5 6 19 12 32 12 13 0 27 -6 32
-12z"/>
<path d="M162300 20508 c1 -7 11 -938 24 -2068 24 -2037 24 -2061 6 -2760 -10
-388 -21 -787 -25 -887 l-6 -183 1455 0 1454 0 6 38 c10 64 56 470 56 496 0
14 -12 38 -26 55 l-26 31 -1091 2 -1092 3 -14 595 c-12 536 -11 784 8 2515 12
1056 21 1977 21 2048 l0 127 -375 0 c-294 0 -375 -3 -375 -12z"/>
<path d="M183930 20513 c-1 -5 -1 -919 -1 -2033 0 -2048 1 -2092 37 -2310 133
-801 625 -1349 1382 -1541 239 -60 364 -73 712 -73 339 -1 432 8 670 60 536
119 948 391 1223 809 200 304 313 670 347 1125 11 138 33 3945 23 3963 -2 4
-168 7 -369 7 l-365 0 6 -322 c3 -178 13 -1051 21 -1942 16 -1710 16 -1751
-27 -1976 -115 -597 -483 -954 -1094 -1061 -113 -20 -163 -23 -380 -23 -212 0
-268 4 -366 22 -348 64 -613 208 -791 431 -194 242 -292 524 -328 936 -11 124
-3 1901 16 3423 l6 512 -361 0 c-199 0 -361 -3 -361 -7z"/>
<path d="M202530 20508 c1 -7 11 -938 24 -2068 24 -2037 24 -2061 6 -2760 -10
-388 -21 -787 -25 -887 l-6 -183 1455 0 1454 0 6 38 c10 64 56 470 56 496 0
14 -12 38 -26 55 l-26 31 -1091 2 -1092 3 -14 595 c-12 536 -11 784 8 2515 12
1056 21 1977 21 2048 l0 127 -375 0 c-294 0 -375 -3 -375 -12z"/>
<path d="M210261 20348 c0 -95 10 -1024 22 -2064 l22 -1891 -22 -819 c-12
-450 -22 -852 -22 -891 l-1 -73 372 0 371 0 -6 263 c-30 1231 -31 1588 -14
3200 10 881 20 1792 24 2025 l6 422 -376 0 -377 0 1 -172z"/>
<path d="M224841 20178 c0 -189 6 -1118 12 -2065 10 -1335 10 -1888 0 -2465
-6 -409 -12 -809 -12 -890 l-1 -148 361 0 361 0 -9 593 c-4 325 -8 925 -8
1332 l0 740 1571 3 1572 2 7 -357 c7 -333 -16 -2043 -31 -2240 l-5 -73 367 0
366 0 -6 338 c-16 900 -16 1646 -2 3227 8 946 17 1861 20 2033 l5 312 -369 0
c-203 0 -371 -3 -373 -7 -2 -5 3 -592 10 -1306 8 -714 12 -1302 8 -1305 -11
-12 -3123 -8 -3133 3 -4 6 -3 486 4 1070 7 583 13 1169 13 1303 l1 242 -365 0
-365 0 1 -342z"/>
<path d="M235001 20348 c0 -95 10 -1024 22 -2064 l22 -1891 -22 -819 c-12
-450 -22 -852 -22 -892 l-1 -72 1657 2 1657 3 28 283 27 283 -21 34 -20 35
-96 0 c-54 0 -331 -7 -617 -15 -527 -15 -1669 -20 -1807 -9 l-75 7 -7 216 c-3
119 -9 590 -12 1047 l-7 832 459 7 c268 5 702 3 1044 -3 322 -6 586 -10 586
-9 1 1 17 129 34 284 l32 282 -23 31 -24 31 -235 -6 c-555 -13 -1043 -16
-1435 -8 l-420 8 3 220 c1 121 5 556 8 967 l6 747 42 6 c71 9 1506 10 2026 1
l496 -8 27 287 c27 281 27 288 9 318 l-18 32 -1662 3 -1662 2 1 -172z"/>
<path d="M23202 7219 l3 -231 3582 -2249 3582 -2249 12981 0 12980 0 0 825 0
825 -14085 0 -14085 0 0 1655 0 1655 -2480 0 -2480 0 2 -231z"/>
</g>
</svg>
